SplineFontDB: 3.2
FontName: BaskervilleNovus-Roman
FullName: Baskerville Novus Roman
FamilyName: Baskerville Novus
Weight: Regular
Copyright: Copyright (c) 2022, Jeff Johnson
Version: 0.1
ItalicAngle: 0
UnderlinePosition: -119
UnderlineWidth: 47
Ascent: 780
Descent: 220
InvalidEm: 0
LayerCount: 2
Layer: 0 0 "Back" 1
Layer: 1 0 "Fore" 0
XUID: [1021 141 -2013518871 3968982]
FSType: 0
OS2Version: 0
OS2_WeightWidthSlopeOnly: 0
OS2_UseTypoMetrics: 1
CreationTime: 1651971928
ModificationTime: 1653398684
PfmFamily: 17
TTFWeight: 400
TTFWidth: 5
LineGap: 86
VLineGap: 0
OS2TypoAscent: 0
OS2TypoAOffset: 1
OS2TypoDescent: 0
OS2TypoDOffset: 1
OS2TypoLinegap: 86
OS2WinAscent: 0
OS2WinAOffset: 1
OS2WinDescent: 0
OS2WinDOffset: 1
HheadAscent: 0
HheadAOffset: 1
HheadDescent: 0
HheadDOffset: 1
OS2FamilyClass: 512
OS2Vendor: 'PfEd'
OS2UnicodeRanges: 000003ff.00000000.00000000.00000000
MarkAttachClasses: 1
DEI: 91125
ShortTable: maxp 16
  0
  0
  0
  0
  0
  0
  0
  2
  1
  2
  22
  0
  256
  0
  0
  0
EndShort
TtTable: prep
PUSHW_1
 511
SCANCTRL
PUSHB_1
 1
SCANTYPE
SVTCA[y-axis]
MPPEM
PUSHB_1
 8
LT
IF
PUSHB_2
 1
 1
INSTCTRL
EIF
PUSHB_2
 70
 6
CALL
IF
POP
PUSHB_1
 16
EIF
MPPEM
PUSHB_1
 20
GT
IF
POP
PUSHB_1
 128
EIF
SCVTCI
PUSHB_1
 6
CALL
NOT
IF
SVTCA[y-axis]
PUSHB_1
 5
DUP
RCVT
PUSHB_1
 3
CALL
WCVTP
SVTCA[x-axis]
PUSHB_1
 6
DUP
RCVT
PUSHB_1
 3
CALL
WCVTP
EIF
PUSHB_1
 20
CALL
EndTTInstrs
TtTable: fpgm
PUSHB_1
 0
FDEF
PUSHB_1
 0
SZP0
MPPEM
PUSHB_1
 42
LT
IF
PUSHB_1
 74
SROUND
EIF
PUSHB_1
 0
SWAP
MIAP[rnd]
RTG
PUSHB_1
 6
CALL
IF
RTDG
EIF
MPPEM
PUSHB_1
 42
LT
IF
RDTG
EIF
DUP
MDRP[rp0,rnd,grey]
PUSHB_1
 1
SZP0
MDAP[no-rnd]
RTG
ENDF
PUSHB_1
 1
FDEF
DUP
MDRP[rp0,min,white]
PUSHB_1
 12
CALL
ENDF
PUSHB_1
 2
FDEF
MPPEM
GT
IF
RCVT
SWAP
EIF
POP
ENDF
PUSHB_1
 3
FDEF
ROUND[Black]
RTG
DUP
PUSHB_1
 64
LT
IF
POP
PUSHB_1
 64
EIF
ENDF
PUSHB_1
 4
FDEF
PUSHB_1
 6
CALL
IF
POP
SWAP
POP
ROFF
IF
MDRP[rp0,min,rnd,black]
ELSE
MDRP[min,rnd,black]
EIF
ELSE
MPPEM
GT
IF
IF
MIRP[rp0,min,rnd,black]
ELSE

StartChar: n
Encoding: 110 110 0
GlifName: n
Width: 599
VWidth: 0
Flags: HW
HStem: -2 34<22 51 192 251 348 377 518 577> 411 44<243 381>
VStem: 94 86<47 348> 420 86<47 370>
LayerCount: 2
Fore
SplineSet
47.291015625 744.201171875 m 5
 68.50390625 765.4140625 l 5
 82.646484375 751.272460938 l 5
 61.4326171875 730.059570312 l 5
 82.646484375 708.845703125 l 5
 68.50390625 694.704101562 l 5
 47.291015625 715.916992188 l 5
 26.0771484375 694.704101562 l 5
 11.935546875 708.845703125 l 5
 33.1484375 730.059570312 l 5
 11.935546875 751.272460938 l 5
 26.0771484375 765.4140625 l 5
 47.291015625 744.201171875 l 5
420 270 m 2
 420 320 411.166666667 356 393.5 378 c 128
 375.833333333 400 352.333333333 411 323 411 c 0
 270.333333333 411 233.333333333 395.666666667 212 365 c 128
 190.666666667 334.333333333 180 288.333333333 180 227 c 2
 180 119 l 2
 180 78.3333333333 183.666666667 54.3333333333 191 47 c 0
 198.333333333 39 208.666666667 34.3333333333 222 33 c 2
 239 32 l 2
 244.333333333 32 248.5 30.5 251.5 27.5 c 128
 254.5 24.5 256 20.5 256 15.5 c 128
 256 10.5 254.5 6.33333333333 251.5 3 c 128
 248.5 -0.333333333333 244.333333333 -2 239 -2 c 0
 233 -2 221.5 -1.66666666667 204.5 -1 c 128
 187.5 -0.333333333333 167.666666667 0 145 0 c 2
 129 0 l 2
 106.333333333 0 86.3333333333 -0.333333333333 69 -1 c 128
 51.6666666667 -1.66666666667 40 -2 34 -2 c 0
 28.6666666667 -2 24.5 -0.333333333333 21.5 3 c 128
 18.5 6.33333333333 17 10.5 17 15.5 c 128
 17 20.5 18.6666666667 24.5 22 27.5 c 128
 25.3333333333 30.5 29.3333333333 32 34 32 c 2
 51 33 l 2
 62.3333333333 33.6666666667 72.6666666667 38.3333333333 82 47 c 0
 90 54.3333333333 94 78.3333333333 94 119 c 2
 94 342 l 2
 94 356 89 368 79 378 c 128
 69 388 55.3333333333 393 38 393 c 0
 32 393 27.8333333333 394.666666667 25.5 398 c 128
 23.1666666667 401.333333333 22 405.5 22 410.5 c 128
 22 415.5 23.3333333333 419.5 26 422.5 c 128
 28.6666666667 425.5 32 427.333333333 36 428 c 0
 60 431.333333333 84.6666666667 437.333333333 110 446 c 0
 131.333333333 453.333333333 144.666666667 457 150 457 c 0
 155.333333333 457 159.333333333 455.666666667 162 453 c 0
 165.333333333 449.666666667 167.666666667 445.333333333 169 440 c 0
 171.666666667 429.333333333 173.333333333 418.666666667 174 408 c 0
 175.333333333 396.666666667 176 384 176 370 c 1
 196 402.666666667 220 424.666666667 248 436 c 0
 276 448.666666667 308 455 344 455 c 0
 396.666666667 455 436.833333333 442.666666667 464.5 418 c 128
 492.166666667 393.333333333 506 351.666666667 506 293 c 2
 506 119 l 2
 506 78.3333333333 509.666666667 54.3333333333 517 47 c 0
 524.333333333 39 534.666666667 34.3333333333 548 33 c 2
 565 32 l 2
 570.333333333 32 574.5 30.5 577.5 27.5 c 128
 580.5 24.5 582 20.5 582 15.5 c 128
 582 10.5 580.333333333 6.33333333333 577 3 c 128
 573.666666667 -0.333333333333 569.666666667 -2 565 -2 c 0
 559 -2 547.5 -1.66666666667 530.5 -1 c 128
 513.5 -0.333333333333 493.333333333 0 470 0 c 2
 454 0 l 2
 431.333333333 0 411.5 -0.333333333333 394.5 -1 c 128
 377.5 -1.66666666667 366 -2 360 -2 c 0
 354.666666667 -2 350.5 -0.333333333333 347.5 3 c 128
 344.5 6.33333333333 343 10.5 343 15.5 c 128
 343 20.5 344.5 24.5 347.5 27.5 c 128
 350.5 30.5 354.666666667 32 360 32 c 2
 377 33 l 2
 388.333333333 33.6666666667 398.666666667 38.3333333333 408 47 c 0
 416 54.3333333333 420 78.3333333333 420 119 c 2
 420 270 l 2
EndSplineSet
EndChar

StartChar: m
Encoding: 109 109 1
GlifName: m
Width: 890
VWidth: 0
Flags: HW
HStem: -2 34<22 51 192 251 331 360 500 560 639 669 809 868> 411 44<244 369 552 677>
VStem: 94 86<47 343> 403 86<47 344> 711 86<47 376>
CounterMasks: 1 38
LayerCount: 2
Fore
SplineSet
47.291015625 744.201171875 m 5
 68.50390625 765.4140625 l 5
 82.646484375 751.272460938 l 5
 61.4326171875 730.059570312 l 5
 82.646484375 708.845703125 l 5
 68.50390625 694.704101562 l 5
 47.291015625 715.916992188 l 5
 26.0771484375 694.704101562 l 5
 11.935546875 708.845703125 l 5
 33.1484375 730.059570312 l 5
 11.935546875 751.272460938 l 5
 26.0771484375 765.4140625 l 5
 47.291015625 744.201171875 l 5
711 270 m 2
 711 320 703.333333333 356 688 378 c 128
 672.666666667 400 649 411 617 411 c 0
 577 411 545.666666667 395.666666667 523 365 c 128
 500.333333333 334.333333333 489 288.333333333 489 227 c 2
 489 119 l 2
 489 78.3333333333 492.666666667 54.3333333333 500 47 c 0
 507.333333333 39 517.333333333 34.3333333333 530 33 c 2
 548 32 l 2
 553.333333333 32 557.5 30.5 560.5 27.5 c 128
 563.5 24.5 565 20.5 565 15.5 c 128
 565 10.5 563.333333333 6.33333333333 560 3 c 128
 556.666666667 -0.333333333333 552.666666667 -2 548 -2 c 0
 542 -2 530.5 -1.66666666667 513.5 -1 c 128
 496.5 -0.333333333333 476.333333333 0 453 0 c 2
 437 0 l 2
 414.333333333 0 394.333333333 -0.333333333333 377 -1 c 128
 359.666666667 -1.66666666667 348.333333333 -2 343 -2 c 0
 337.666666667 -2 333.5 -0.333333333333 330.5 3 c 128
 327.5 6.33333333333 326 10.3333333333 326 15 c 0
 326 19.6666666667 327.666666667 24 331 28 c 0
 334.333333333 31.3333333333 338.333333333 32.6666666667 343 32 c 2
 360 33 l 2
 371.333333333 33.6666666667 381.333333333 38.1666666667 390 46.5 c 128
 398.666666667 54.8333333333 403 79 403 119 c 2
 403 270 l 2
 403 320 395.333333333 356 380 378 c 128
 364.666666667 400 341.333333333 411 310 411 c 0
 270 411 238.333333333 395.666666667 215 365 c 128
 191.666666667 334.333333333 180 288.333333333 180 227 c 2
 180 119 l 2
 180 78.3333333333 183.666666667 54.3333333333 191 47 c 0
 198.333333333 39 208.666666667 34.3333333333 222 33 c 2
 239 32 l 2
 244.333333333 32 248.5 30.5 251.5 27.5 c 128
 254.5 24.5 256 20.5 256 15.5 c 128
 256 10.5 254.5 6.33333333333 251.5 3 c 128
 248.5 -0.333333333333 244.333333333 -2 239 -2 c 0
 233 -2 221.5 -1.66666666667 204.5 -1 c 128
 187.5 -0.333333333333 167.666666667 0 145 0 c 2
 129 0 l 2
 106.333333333 0 86.3333333333 -0.333333333333 69 -1 c 128
 51.6666666667 -1.66666666667 40 -2 34 -2 c 0
 28.6666666667 -2 24.5 -0.333333333333 21.5 3 c 128
 18.5 6.33333333333 17 10.5 17 15.5 c 128
 17 20.5 18.6666666667 24.5 22 27.5 c 128
 25.3333333333 30.5 29.3333333333 32 34 32 c 2
 51 33 l 2
 62.3333333333 33.6666666667 72.6666666667 38.3333333333 82 47 c 0
 90 54.3333333333 94 78.3333333333 94 119 c 2
 94 342 l 2
 94 356 89 368 79 378 c 128
 69 388 55.3333333333 393 38 393 c 0
 32 393 27.8333333333 394.666666667 25.5 398 c 128
 23.1666666667 401.333333333 22 405.5 22 410.5 c 128
 22 415.5 23.3333333333 419.5 26 422.5 c 128
 28.6666666667 425.5 32 427.333333333 36 428 c 0
 60 431.333333333 84.6666666667 437.333333333 110 446 c 0
 130.666666667 453.333333333 144 457 150 457 c 0
 155.333333333 457 159.333333333 455.666666667 162 453 c 0
 165.333333333 449.666666667 167.666666667 445.333333333 169 440 c 0
 171.666666667 429.333333333 173.333333333 418.666666667 174 408 c 0
 175.333333333 396.666666667 176 384 176 370 c 1
 196 402.666666667 220.666666667 425 250 437 c 128
 279.333333333 449 307.666666667 455 335 455 c 0
 375.666666667 455 407.5 449 430.5 437 c 128
 453.5 425 471.666666667 402.666666667 485 370 c 1
 505 402.666666667 529.5 425 558.5 437 c 128
 587.5 449 615.666666667 455 643 455 c 0
 697.666666667 455 737 443.666666667 761 421 c 128
 785 398.333333333 797 355.666666667 797 293 c 2
 797 119 l 2
 797 78.3333333333 801 54.3333333333 809 47 c 0
 816.333333333 39 826.333333333 34.3333333333 839 33 c 2
 856 32 l 2
 861.333333333 32 865.5 30.5 868.5 27.5 c 128
 871.5 24.5 873 20.5 873 15.5 c 128
 873 10.5 871.5 6.33333333333 868.5 3 c 128
 865.5 -0.333333333333 861.333333333 -2 856 -2 c 0
 850 -2 838.5 -1.66666666667 821.5 -1 c 128
 804.5 -0.333333333333 784.666666667 0 762 0 c 2
 746 0 l 2
 723.333333333 0 703.333333333 -0.333333333333 686 -1 c 128
 668.666666667 -1.66666666667 657 -2 651 -2 c 0
 645.666666667 -2 641.5 -0.333333333333 638.5 3 c 128
 635.5 6.33333333333 634 10.5 634 15.5 c 128
 634 20.5 635.666666667 24.5 639 27.5 c 128
 642.333333333 30.5 646.333333333 32 651 32 c 2
 669 33 l 2
 680.333333333 33.6666666667 690.333333333 38.3333333333 699 47 c 0
 707 54.3333333333 711 78.3333333333 711 119 c 2
 711 270 l 2
EndSplineSet
EndChar

StartChar: r
Encoding: 114 114 2
GlifName: r
Width: 436
VWidth: 0
Flags: HW
HStem: -2 34<39 69 209 268> 416 39<264 365>
VStem: 111 86<47 351>
LayerCount: 2
Fore
SplineSet
47.291015625 744.201171875 m 5
 68.50390625 765.4140625 l 5
 82.646484375 751.272460938 l 5
 61.4326171875 730.059570312 l 5
 82.646484375 708.845703125 l 5
 68.50390625 694.704101562 l 5
 47.291015625 715.916992188 l 5
 26.0771484375 694.704101562 l 5
 11.935546875 708.845703125 l 5
 33.1484375 730.059570312 l 5
 11.935546875 751.272460938 l 5
 26.0771484375 765.4140625 l 5
 47.291015625 744.201171875 l 5
376 365 m 256
 366.666666667 365 359 367.166666667 353 371.5 c 128
 347 375.833333333 342 382.333333333 338 391 c 0
 331.333333333 407.666666667 321.333333333 416 308 416 c 256
 277.333333333 416 250 398.333333333 226 363 c 0
 206.666666667 334.333333333 197 289 197 227 c 2
 197 119 l 2
 197 78.3333333333 201 54.3333333333 209 47 c 0
 216.333333333 39 226.333333333 34.3333333333 239 33 c 2
 256 32 l 2
 261.333333333 32 265.5 30.5 268.5 27.5 c 128
 271.5 24.5 273 20.5 273 15.5 c 128
 273 10.5 271.5 6.33333333333 268.5 3 c 128
 265.5 -0.333333333333 261.333333333 -2 256 -2 c 0
 250 -2 238.5 -1.66666666667 221.5 -1 c 128
 204.5 -0.333333333333 184.666666667 0 162 0 c 2
 146 0 l 2
 123.333333333 0 103.333333333 -0.333333333333 86 -1 c 128
 68.6666666667 -1.66666666667 57 -2 51 -2 c 0
 45.6666666667 -2 41.5 -0.333333333333 38.5 3 c 128
 35.5 6.33333333333 34 10.5 34 15.5 c 128
 34 20.5 35.6666666667 24.5 39 27.5 c 128
 42.3333333333 30.5 46.3333333333 32 51 32 c 2
 69 33 l 2
 80.3333333333 33.6666666667 90.3333333333 38.3333333333 99 47 c 256
 107 54.3333333333 111 78.3333333333 111 119 c 2
 111 342 l 2
 111 356 106 368 96 378 c 128
 86 388 72.3333333333 393 55 393 c 0
 49 393 44.8333333333 394.666666667 42.5 398 c 128
 40.1666666667 401.333333333 39 405.333333333 39 410 c 256
 39 415.333333333 40.3333333333 419.5 43 422.5 c 128
 45.6666666667 425.5 49 427.333333333 53 428 c 0
 77 431.333333333 101.666666667 437.333333333 127 446 c 0
 148.333333333 453.333333333 162 457 168 457 c 0
 173.333333333 457 177 455.666666667 179 453 c 0
 182.333333333 449.666666667 184.666666667 445.333333333 186 440 c 0
 188.666666667 429.333333333 190.333333333 418.666666667 191 408 c 0
 192.333333333 396.666666667 193 384 193 370 c 1
 211 398.666666667 233.166666667 420 259.5 434 c 128
 285.833333333 448 315.333333333 455 348 455 c 0
 371.333333333 455 389 450.166666667 401 440.5 c 128
 413 430.833333333 419 420 419 408 c 256
 419 394 415.333333333 383.333333333 408 376 c 0
 399.333333333 368.666666667 388.666666667 365 376 365 c 256
EndSplineSet
EndChar

StartChar: dollar
Encoding: 36 36 3
GlifName: dollar
Width: 531
VWidth: 0
Flags: HW
HStem: 0 34<145 249 284 358> 637 34<176 250 284 377>
VStem: 34 87<59 145> 55 65<478 581> 250 34<-151 0 35 306 416 637 671 758> 406 76<539 611> 430 67<95 227>
DStem2: 203 438 202 344 0.906665 -0.421851<-92.0038 51.5516 89.4672 91.3261 129.242 280.789>
LayerCount: 2
Fore
SplineSet
47.291015625 744.201171875 m 5
 68.50390625 765.4140625 l 5
 82.646484375 751.272460938 l 5
 61.4326171875 730.059570312 l 5
 82.646484375 708.845703125 l 5
 68.50390625 694.704101562 l 5
 47.291015625 715.916992188 l 5
 26.0771484375 694.704101562 l 5
 11.935546875 708.845703125 l 5
 33.1484375 730.059570312 l 5
 11.935546875 751.272460938 l 5
 26.0771484375 765.4140625 l 5
 47.291015625 744.201171875 l 5
202 344 m 2
 148 368.666666667 110 392.333333333 88 415 c 0
 66.6666666667 437 55.6666666667 467 55 505 c 0
 55 552.333333333 75.6666666667 592 117 624 c 0
 154.333333333 652.666666667 198.666666667 668.333333333 250 671 c 1
 250 750 l 2
 250 756 252.666666667 758.666666667 258 758 c 2
 275 758 l 2
 281 758 284 755.333333333 284 750 c 2
 284 671 l 1
 343.333333333 669 390.333333333 658.333333333 425 639 c 0
 463 617.666666667 482 589.666666667 482 555 c 0
 482 543 477.833333333 532.833333333 469.5 524.5 c 128
 461.166666667 516.166666667 451 512 439 512 c 128
 427 512 416.833333333 516.166666667 408.5 524.5 c 128
 400.166666667 532.833333333 396 542 396 552 c 0
 396 559.333333333 397.666666667 566 401 572 c 128
 404.333333333 578 406 584 406 590 c 0
 406 602.666666667 396.666666667 614 378 624 c 0
 361.333333333 632 330 636.333333333 284 637 c 1
 284 400 l 1
 340 374 l 2
 400 346.666666667 441.333333333 318.666666667 464 290 c 0
 486 261.333333333 497 226.666666667 497 186 c 0
 497 129.333333333 477.333333333 84 438 50 c 0
 402 18.6666666667 350.666666667 2 284 0 c 1
 284 -143 l 2
 284 -149 281 -151.666666667 275 -151 c 2
 257 -151 l 2
 251 -151 248.333333333 -148.333333333 249 -143 c 2
 249 0 l 1
 180.333333333 1.33333333333 127.333333333 12.5 90 33.5 c 128
 52.6666666667 54.5 34 81 34 113 c 0
 34 123.666666667 38.1666666667 133.5 46.5 142.5 c 128
 54.8333333333 151.5 65 156 77 156 c 0
 89.6666666667 156 100 152.666666667 108 146 c 0
 116.666666667 138 121 128 121 116 c 0
 121 109.333333333 120.666666667 103.5 120 98.5 c 128
 119.333333333 93.5 119 88.6666666667 119 84 c 0
 119 67.3333333333 131.333333333 55 156 47 c 128
 180.666666667 39 211.666666667 34.6666666667 249 34 c 1
 250 322 l 1
 202 344 l 2
284 35 m 1
 330 37 365 49 389 71 c 0
 417 97 430.666666667 127.333333333 430 162 c 0
 430 212 399.666666667 251.333333333 339 280 c 2
 284 306 l 1
 284 35 l 1
250 637 m 1
 205.333333333 634.333333333 173 623.666666667 153 605 c 0
 131 583.666666667 120 559 120 531 c 0
 120 510.333333333 127.333333333 492.666666667 142 478 c 128
 156.666666667 463.333333333 177 450 203 438 c 2
 250 416 l 1
 250 637 l 1
EndSplineSet
EndChar

StartChar: l
Encoding: 108 108 4
GlifName: l
Width: 265
VWidth: 0
Flags: W
HStem: -1 32<16.0051 51 182.651 248.995> 641 32<29.0044 87.8318>
VStem: 93 80<36.8625 639.351>
LayerCount: 2
Fore
SplineSet
93 120 m 6
 93 609 l 6
 93 627 79 641 61 641 c 6
 45 641 l 6
 35 641 29 648 29 657 c 4
 29 666 35 673 45 673 c 4
 79 673 145 687 155 689 c 4
 165 691 173 681 173 671 c 6
 173 120 l 6
 173 60 175 34 215 32 c 6
 233 31 l 6
 242 31 249 25 249 15 c 4
 249 5 242 -1 233 -1 c 4
 208 -1 173 0 141 0 c 6
 125 0 l 6
 93 0 57 -1 32 -1 c 4
 23 -1 16 5 16 15 c 4
 16 25 23 31 32 31 c 6
 51 32 l 6
 90 34 93 60 93 120 c 6
EndSplineSet
EndChar

StartChar: i
Encoding: 105 105 5
GlifName: i
Width: 265
VWidth: 0
Flags: W
HStem: -1 32<16.0051 51 182.651 248.995> 408 32<29.0044 87.8318> 575 96<84.6885 164.668>
VStem: 77 96<583.332 662.668> 93 80<36.8625 406.351>
LayerCount: 2
Fore
SplineSet
77 623 m 260xf0
 77 650 99 671 125 671 c 260
 151 671 173 649 173 623 c 260
 173 597 151 575 125 575 c 260
 99 575 77 596 77 623 c 260xf0
93 120 m 2xe8
 93 376 l 2
 93 394 79 408 61 408 c 2
 45 408 l 2
 35 408 29 415 29 424 c 0
 29 433 35 440 45 440 c 0
 79 440 145 454 155 456 c 0
 165 458 173 448 173 438 c 2
 173 120 l 2
 173 60 175 34 215 32 c 2
 233 31 l 2
 242 31 249 25 249 15 c 0
 249 5 242 -1 233 -1 c 0
 208 -1 173 0 141 0 c 2
 125 0 l 2
 93 0 57 -1 32 -1 c 0
 23 -1 16 5 16 15 c 0
 16 25 23 31 32 31 c 2
 51 32 l 2
 90 34 93 60 93 120 c 2xe8
EndSplineSet
EndChar

StartChar: h
Encoding: 104 104 6
GlifName: h
Width: 599
VWidth: 0
Flags: HW
HStem: -2 34<22 51 192 251 348 377 518 577> 411 44<242 381> 639 34<27 79> 670 19G<160 166>
VStem: 94 86<47 348 375 623> 420 86<47 370>
LayerCount: 2
Fore
SplineSet
47.291015625 744.201171875 m 5
 68.50390625 765.4140625 l 5
 82.646484375 751.272460938 l 5
 61.4326171875 730.059570312 l 5
 82.646484375 708.845703125 l 5
 68.50390625 694.704101562 l 5
 47.291015625 715.916992188 l 5
 26.0771484375 694.704101562 l 5
 11.935546875 708.845703125 l 5
 33.1484375 730.059570312 l 5
 11.935546875 751.272460938 l 5
 26.0771484375 765.4140625 l 5
 47.291015625 744.201171875 l 5
420 270 m 2
 420 320 411.166666667 356 393.5 378 c 128
 375.833333333 400 352.333333333 411 323 411 c 0
 270.333333333 411 233.333333333 395.666666667 212 365 c 128
 190.666666667 334.333333333 180 288.333333333 180 227 c 2
 180 119 l 2
 180 78.3333333333 183.666666667 54.3333333333 191 47 c 0
 198.333333333 39 208.666666667 34.3333333333 222 33 c 2
 239 32 l 2
 244.333333333 32 248.5 30.5 251.5 27.5 c 128
 254.5 24.5 256 20.5 256 15.5 c 128
 256 10.5 254.5 6.33333333333 251.5 3 c 128
 248.5 -0.333333333333 244.333333333 -2 239 -2 c 0
 233 -2 221.5 -1.66666666667 204.5 -1 c 128
 187.5 -0.333333333333 167.666666667 0 145 0 c 2
 129 0 l 2
 106.333333333 0 86.3333333333 -0.333333333333 69 -1 c 128
 51.6666666667 -1.66666666667 40 -2 34 -2 c 0
 28.6666666667 -2 24.5 -0.333333333333 21.5 3 c 128
 18.5 6.33333333333 17 10.5 17 15.5 c 128
 17 20.5 18.6666666667 24.5 22 27.5 c 128
 25.3333333333 30.5 29.3333333333 32 34 32 c 2
 51 33 l 2
 62.3333333333 33.6666666667 72.6666666667 38.3333333333 82 47 c 0
 90 54.3333333333 94 78.3333333333 94 119 c 2
 94 588 l 2
 94 602 89 614 79 624 c 128
 69 634 55.3333333333 639 38 639 c 0
 32.6666666667 639 28.6666666667 640.666666667 26 644 c 128
 23.3333333333 647.333333333 22 651.5 22 656.5 c 128
 22 661.5 23.5 665.5 26.5 668.5 c 128
 29.5 671.5 33.3333333333 673 38 673 c 0
 43.3333333333 673 50.3333333333 673.333333333 59 674 c 0
 65.6666666667 674 79.6666666667 675.333333333 101 678 c 0
 124.333333333 680.666666667 138.666666667 683 144 685 c 0
 152 687.666666667 158.333333333 689 163 689 c 128
 167.666666667 689 171.666666667 687.333333333 175 684 c 0
 178.333333333 680 180 675.666666667 180 671 c 2
 180 375 l 1
 200 404.333333333 223.333333333 425 250 437 c 256
 276.666666667 449 308 455 344 455 c 0
 396.666666667 455 436.833333333 442.666666667 464.5 418 c 128
 492.166666667 393.333333333 506 351.666666667 506 293 c 2
 506 119 l 2
 506 78.3333333333 509.666666667 54.3333333333 517 47 c 0
 524.333333333 39 534.666666667 34.3333333333 548 33 c 2
 565 32 l 2
 570.333333333 32 574.5 30.5 577.5 27.5 c 128
 580.5 24.5 582 20.5 582 15.5 c 128
 582 10.5 580.333333333 6.33333333333 577 3 c 128
 573.666666667 -0.333333333333 569.666666667 -2 565 -2 c 0
 559 -2 547.5 -1.66666666667 530.5 -1 c 128
 513.5 -0.333333333333 493.333333333 0 470 0 c 2
 454 0 l 2
 431.333333333 0 411.5 -0.333333333333 394.5 -1 c 128
 377.5 -1.66666666667 366 -2 360 -2 c 0
 354.666666667 -2 350.5 -0.333333333333 347.5 3 c 128
 344.5 6.33333333333 343 10.5 343 15.5 c 128
 343 20.5 344.5 24.5 347.5 27.5 c 128
 350.5 30.5 354.666666667 32 360 32 c 2
 377 33 l 2
 388.333333333 33.6666666667 398.666666667 38.3333333333 408 47 c 0
 416 54.3333333333 420 78.3333333333 420 119 c 2
 420 270 l 2
EndSplineSet
EndChar

StartChar: j
Encoding: 106 106 7
GlifName: j
Width: 176
VWidth: 0
Flags: HW
HStem: -220 32<-60.1596 31.8432> 408 32<16.0044 74.8318> 575 96<71.6885 151.668>
VStem: 64 96<583.332 662.668> 80 80<-132.891 406.351>
LayerCount: 2
Fore
SplineSet
-112 -116 m 0xe8
 -68 -116 -88 -188 -16 -188 c 0
 67 -188 80 -98 80 4 c 2
 80 376 l 2
 80 394 66 408 48 408 c 2
 32 408 l 2
 22 408 16 415 16 424 c 0
 16 433 22 440 32 440 c 0
 66 440 132 454 142 456 c 0
 152 458 160 448 160 438 c 2
 160 0 l 2
 160 -144 117 -220 -16 -220 c 0
 -96 -220 -144 -183 -144 -148 c 0
 -144 -130 -130 -116 -112 -116 c 0xe8
64 623 m 4xf0
 64 650 86 671 112 671 c 4
 138 671 160 649 160 623 c 4
 160 597 138 575 112 575 c 4
 86 575 64 596 64 623 c 4xf0
EndSplineSet
EndChar

StartChar: asterisk
Encoding: 42 42 8
GlifName: asterisk
Width: 453
VWidth: 0
Flags: HW
HStem: 346 90<47 114 339 406> 515 90<47 114 339 406> 671 19G<218 236>
VStem: 184 86<273 360 591 678> 218 17<371 460 490 580>
DStem2: 198 502 190 487 0.86514 -0.50153<-66.2228 23.0346 53.1503 142.408> 190 464 198 449 0.86514 0.50153<-66.4497 22.8077 52.9234 142.181>
LayerCount: 2
Fore
SplineSet
47.291015625 744.201171875 m 5
 68.50390625 765.4140625 l 5
 82.646484375 751.272460938 l 5
 61.4326171875 730.059570312 l 5
 82.646484375 708.845703125 l 5
 68.50390625 694.704101562 l 5
 47.291015625 715.916992188 l 5
 26.0771484375 694.704101562 l 5
 11.935546875 708.845703125 l 5
 33.1484375 730.059570312 l 5
 11.935546875 751.272460938 l 5
 26.0771484375 765.4140625 l 5
 47.291015625 744.201171875 l 5
190 487 m 2
 159.333333333 505.666666667 131.333333333 515 106 515 c 0
 58.6666666667 516.333333333 34.6666666667 532.333333333 34 563 c 0
 34 575 38.1666666667 585 46.5 593 c 128
 54.8333333333 601 65.3333333333 605 78 605 c 0
 95.3333333333 605 113 590 131 560 c 0
 143 540 165.333333333 520.666666667 198 502 c 2
 218 490 l 1
 218 513 l 2
 218 550.333333333 212.333333333 579.166666667 201 599.5 c 128
 189.666666667 619.833333333 184 636 184 648 c 0
 184 660 188.166666667 670 196.5 678 c 128
 204.833333333 686 215 690 227 690 c 128
 239 690 249.166666667 686 257.5 678 c 128
 265.833333333 670 270 660 270 648 c 0
 270 636.666666667 264.166666667 620.833333333 252.5 600.5 c 128
 240.833333333 580.166666667 235 551 235 513 c 2
 235 490 l 1
 255 502 l 2
 287.666666667 521.333333333 310 540.666666667 322 560 c 0
 340.666666667 590 358.333333333 605 375 605 c 0
 387.666666667 605 398.166666667 601 406.5 593 c 128
 414.833333333 585 419 575 419 563 c 0
 419 532.333333333 395.333333333 516.333333333 348 515 c 0
 322.666666667 514.333333333 294.666666667 505 264 487 c 2
 244 475 l 1
 264 464 l 2
 294.666666667 445.333333333 322.666666667 435.666666667 348 435 c 0
 395.333333333 433.666666667 419 418 419 388 c 0
 419 376 414.833333333 366 406.5 358 c 128
 398.166666667 350 387.666666667 346 375 346 c 0
 357.666666667 346 340 360.666666667 322 390 c 0
 310 410 287.666666667 429.666666667 255 449 c 2
 235 460 l 1
 235 437 l 2
 235 399.666666667 240.833333333 370.833333333 252.5 350.5 c 128
 264.166666667 330.166666667 270 314.333333333 270 303 c 0
 270 291 265.833333333 280.833333333 257.5 272.5 c 128
 249.166666667 264.166666667 239 260 227 260 c 128
 215 260 204.833333333 264.166666667 196.5 272.5 c 128
 188.166666667 280.833333333 184 291 184 303 c 0
 184 314.333333333 189.666666667 330.166666667 201 350.5 c 128
 212.333333333 370.833333333 218 399.666666667 218 437 c 2
 218 460 l 1
 198 449 l 2
 165.333333333 429.666666667 143 410 131 390 c 0
 112.333333333 360 94.6666666667 345.333333333 78 346 c 0
 65.3333333333 346 54.8333333333 350 46.5 358 c 128
 38.1666666667 366 34 376 34 388 c 0
 34 418.666666667 58 434.333333333 106 435 c 0
 131.333333333 435.666666667 159.333333333 445.333333333 190 464 c 2
 210 475 l 1
 190 487 l 2
EndSplineSet
EndChar

StartChar: o
Encoding: 111 111 9
GlifName: o
Width: 484
VWidth: 0
Flags: W
HStem: -8 32<184.649 300.169> 424 32<185.865 297.341>
VStem: 18 96<123.24 322.072> 370 96<119.372 318.174>
LayerCount: 2
Fore
SplineSet
466 224 m 256
 466 86.0166015625 373.53125 -8 242 -8 c 256
 115.377929688 -8 18 94.369140625 18 224 c 256
 18 354.91796875 120.526367188 456 242 456 c 256
 358.319335938 456 466 346.568359375 466 224 c 256
242 424 m 256
 146.799804688 424 114 324.916992188 114 224 c 256
 114 121.25 145.06640625 24 242 24 c 256
 338.927734375 24 370 121.26953125 370 224 c 256
 370 324.801757812 337.5234375 424 242 424 c 256
  Spiro
    242 424 o
    166.56 394.629 o
    126.004 320.615 o
    114 224 o
    125.62 126.57 o
    165.79 52.9639 o
    242 24 o
    318.207 52.9683 o
    358.379 126.579 o
    370 224 o
    358.067 320.564 o
    317.583 394.604 o
    0 0 z
  EndSpiro
EndSplineSet
EndChar

StartChar: parenleft
Encoding: 40 40 10
GlifName: parenleft
Width: 319
VWidth: 0
Flags: HW
VStem: 51 86<130 418>
LayerCount: 2
Fore
SplineSet
47.291015625 744.201171875 m 5
 68.50390625 765.4140625 l 5
 82.646484375 751.272460938 l 5
 61.4326171875 730.059570312 l 5
 82.646484375 708.845703125 l 5
 68.50390625 694.704101562 l 5
 47.291015625 715.916992188 l 5
 26.0771484375 694.704101562 l 5
 11.935546875 708.845703125 l 5
 33.1484375 730.059570312 l 5
 11.935546875 751.272460938 l 5
 26.0771484375 765.4140625 l 5
 47.291015625 744.201171875 l 5
51 274 m 0
 51.6666666667 352 71 431.666666667 109 513 c 0
 140.333333333 580.333333333 189 647.333333333 255 714 c 0
 259 718 263.333333333 720 268 720 c 0
 273.333333333 720 277.5 718.333333333 280.5 715 c 128
 283.5 711.666666667 285 708 285 704 c 0
 285 700 283 695.666666667 279 691 c 0
 241.666666667 645 208.666666667 587.5 180 518.5 c 128
 151.333333333 449.5 137 368 137 274 c 256
 137 180 151.333333333 98.6666666667 180 30 c 0
 210.666666667 -43.3333333333 243.666666667 -101 279 -143 c 0
 283 -147.666666667 285 -151.666666667 285 -155 c 0
 285 -159.666666667 283.333333333 -163.5 280 -166.5 c 128
 276.666666667 -169.5 272.666666667 -171 268 -171 c 0
 263.333333333 -171 259 -169.333333333 255 -166 c 0
 188.333333333 -99.3333333333 139.666666667 -32.3333333333 109 35 c 0
 71 116.333333333 51.6666666667 196 51 274 c 0
EndSplineSet
EndChar

StartChar: zero
Encoding: 48 48 11
GlifName: zero
Width: 539
VWidth: 0
Flags: HW
HStem: -17 34<217 320> 654 34<214 323>
VStem: 44 103<186 498> 387 103<186 498>
LayerCount: 2
Fore
SplineSet
47.291015625 744.201171875 m 5
 68.50390625 765.4140625 l 5
 82.646484375 751.272460938 l 5
 61.4326171875 730.059570312 l 5
 82.646484375 708.845703125 l 5
 68.50390625 694.704101562 l 5
 47.291015625 715.916992188 l 5
 26.0771484375 694.704101562 l 5
 11.935546875 708.845703125 l 5
 33.1484375 730.059570312 l 5
 11.935546875 751.272460938 l 5
 26.0771484375 765.4140625 l 5
 47.291015625 744.201171875 l 5
267 689 m 256
 337 689 391.666666667 654.333333333 431 585 c 128
 470.333333333 515.666666667 490 435 490 343 c 256
 490 251 470.166666667 168 430.5 94 c 128
 390.833333333 20 336.333333333 -17 267 -17 c 256
 197 -17 142.333333333 20 103 94 c 128
 63.6666666667 168 44 251 44 343 c 256
 44 435 63.6666666667 515.666666667 103 585 c 128
 142.333333333 654.333333333 197 689 267 689 c 256
267 654 m 256
 225.666666667 654 195.333333333 630 176 582 c 128
 156.666666667 534 147 454.333333333 147 343 c 256
 147 231.666666667 156.666666667 149.5 176 96.5 c 128
 195.333333333 43.5 225.666666667 17 267 17 c 256
 308.333333333 17 338.666666667 39.5 358 84.5 c 128
 377.333333333 129.5 387 215.666666667 387 343 c 256
 387 469.666666667 377.333333333 553.166666667 358 593.5 c 128
 338.666666667 633.833333333 308.333333333 654 267 654 c 256
EndSplineSet
EndChar

StartChar: parenright
Encoding: 41 41 12
GlifName: parenright
Width: 319
VWidth: 0
Flags: HW
VStem: 182 86<130 418>
LayerCount: 2
Fore
SplineSet
47.291015625 744.201171875 m 5
 68.50390625 765.4140625 l 5
 82.646484375 751.272460938 l 5
 61.4326171875 730.059570312 l 5
 82.646484375 708.845703125 l 5
 68.50390625 694.704101562 l 5
 47.291015625 715.916992188 l 5
 26.0771484375 694.704101562 l 5
 11.935546875 708.845703125 l 5
 33.1484375 730.059570312 l 5
 11.935546875 751.272460938 l 5
 26.0771484375 765.4140625 l 5
 47.291015625 744.201171875 l 5
268 274 m 0
 267.333333333 196 248 116.333333333 210 35 c 0
 178.666666667 -32.3333333333 130 -99.3333333333 64 -166 c 0
 60 -170 55.6666666667 -171.666666667 51 -171 c 0
 45.6666666667 -171 41.5 -169.5 38.5 -166.5 c 128
 35.5 -163.5 34 -159.666666667 34 -155 c 0
 34 -151 36 -147 40 -143 c 0
 75.3333333333 -101.666666667 108.333333333 -44 139 30 c 0
 167.666666667 99.3333333333 182 180.666666667 182 274 c 256
 182 368 167.666666667 449.666666667 139 519 c 128
 110.333333333 588.333333333 77.3333333333 645.666666667 40 691 c 0
 36 695.666666667 34 700 34 704 c 0
 34 708.666666667 35.6666666667 712.5 39 715.5 c 128
 42.3333333333 718.5 46.3333333333 720 51 720 c 0
 55.6666666667 720 60 718 64 714 c 0
 130.666666667 647.333333333 179.333333333 580.333333333 210 513 c 0
 248 431.666666667 267.333333333 352 268 274 c 0
EndSplineSet
EndChar

StartChar: t
Encoding: 116 116 13
GlifName: t
Width: 342
VWidth: 0
Flags: HW
HStem: -17 34<199 279> 404 34<34 80 178 302>
VStem: 92 86<41 404> 145 33<520 571>
LayerCount: 2
Fore
SplineSet
47.291015625 744.201171875 m 5
 68.50390625 765.4140625 l 5
 82.646484375 751.272460938 l 5
 61.4326171875 730.059570312 l 5
 82.646484375 708.845703125 l 5
 68.50390625 694.704101562 l 5
 47.291015625 715.916992188 l 5
 26.0771484375 694.704101562 l 5
 11.935546875 708.845703125 l 5
 33.1484375 730.059570312 l 5
 11.935546875 751.272460938 l 5
 26.0771484375 765.4140625 l 5
 47.291015625 744.201171875 l 5
178 559 m 2
 178 438 l 1
 293 438 l 258
 299 438 302 435.333333333 302 430 c 258
 302 412 l 2
 302 406 299 403.333333333 293 404 c 2
 178 404 l 1
 178 127 l 2
 178 85.6666666667 183.333333333 56.6666666667 194 40 c 0
 203.333333333 24.6666666667 217.666666667 17 237 17 c 0
 255.666666667 17 276 28 298 50 c 256
 301.333333333 53.3333333333 305.333333333 55 310 55 c 256
 314.666666667 55 318.333333333 53.3333333333 321 50 c 256
 324.333333333 46.6666666667 326 43 326 39 c 256
 326 34.3333333333 324.333333333 30.6666666667 321 28 c 0
 291 -2 256 -17 216 -17 c 0
 171.333333333 -17 139.5 -6.5 120.5 14.5 c 128
 101.5 35.5 92 71.3333333333 92 122 c 2
 92 404 l 1
 51 404 l 2
 39.6666666667 404 34 409.333333333 34 420 c 256
 34 430 38.6666666667 436 48 438 c 0
 70 443.333333333 90.6666666667 460.333333333 110 489 c 256
 129.333333333 517 141 542.333333333 145 565 c 0
 145.666666667 568.333333333 147.333333333 571 150 573 c 256
 152.666666667 575 156.333333333 576 161 576 c 256
 166.333333333 576 170.333333333 574.333333333 173 571 c 256
 176.333333333 568.333333333 178 564.333333333 178 559 c 2
EndSplineSet
EndChar

StartChar: s
Encoding: 115 115 14
GlifName: s
Width: 376
VWidth: 0
Flags: HW
HStem: -17 34<121 245> -8 20G<41 46> 421 34<126 238>
VStem: 34 27<90 143> 42 65<327 405> 270 71<49 134> 281 27<333 377>
LayerCount: 2
Fore
SplineSet
47.291015625 744.201171875 m 5
 68.50390625 765.4140625 l 5
 82.646484375 751.272460938 l 5
 61.4326171875 730.059570312 l 5
 82.646484375 708.845703125 l 5
 68.50390625 694.704101562 l 5
 47.291015625 715.916992188 l 5
 26.0771484375 694.704101562 l 5
 11.935546875 708.845703125 l 5
 33.1484375 730.059570312 l 5
 11.935546875 751.272460938 l 5
 26.0771484375 765.4140625 l 5
 47.291015625 744.201171875 l 5
273 428 m 1
 292 450 l 2
 293.333333333 452 295.666666667 452.666666667 299 452 c 0
 301 452 303 451.333333333 305 450 c 256
 307 448.666666667 308 447 308 445 c 0
 308 440.333333333 307.666666667 433.5 307 424.5 c 128
 306.333333333 415.5 306 405 306 393 c 0
 306 376.333333333 306.333333333 365 307 359 c 128
 307.666666667 353 308 347.333333333 308 342 c 256
 308 338 306.5 335 303.5 333 c 128
 300.5 331 297.333333333 330 294 330 c 256
 290 330 287 331 285 333 c 128
 283 335 281.666666667 338 281 342 c 0
 276.333333333 367.333333333 265 386.333333333 247 399 c 0
 226.333333333 413.666666667 203.333333333 421 178 421 c 256
 156.666666667 421 139.5 416 126.5 406 c 128
 113.5 396 107 382.666666667 107 366 c 256
 107 336.666666667 145.666666667 304 223 268 c 0
 302.333333333 230.666666667 342 183.333333333 342 126 c 0
 342 84.6666666667 327.666666667 50.5 299 23.5 c 128
 270.333333333 -3.5 234 -17 190 -17 c 256
 148.666666667 -17 108.666666667 -3.66666666667 70 23 c 1
 52 -4 l 2
 50 -6.66666666667 47 -8 43 -8 c 256
 41 -8 39 -7.33333333333 37 -6 c 128
 35 -4.66666666667 34 -2.33333333333 34 1 c 256
 34 5 34.1666666667 10.8333333333 34.5 18.5 c 128
 34.8333333333 26.1666666667 35 41 35 63 c 256
 35 85 34.6666666667 107.333333333 34 130 c 0
 34 137.333333333 38.3333333333 141.666666667 47 143 c 0
 54.3333333333 144.333333333 59 140.333333333 61 131 c 256
 67.6666666667 97.6666666667 81.1666666667 70.3333333333 101.5 49 c 128
 121.833333333 27.6666666667 149.333333333 17 184 17 c 256
 210.666666667 17 231.666666667 23.1666666667 247 35.5 c 128
 262.333333333 47.8333333333 270 66.3333333333 270 91 c 256
 270 123 235 155.666666667 165 189 c 0
 83 227.666666667 42 276 42 334 c 256
 42 367.333333333 53.3333333333 395.833333333 76 419.5 c 128
 98.6666666667 443.166666667 130.333333333 455 171 455 c 256
 207 455.666666667 241 446.666666667 273 428 c 1
EndSplineSet
EndChar

StartChar: u
Encoding: 117 117 15
GlifName: u
Width: 571
VWidth: 0
Flags: HW
HStem: -17 34<215 319> 17 34<494 549> 406 34<23 73 327 378>
VStem: 90 86<56 385> 394 86<94 386>
LayerCount: 2
Fore
SplineSet
47.291015625 744.201171875 m 5
 68.50390625 765.4140625 l 5
 82.646484375 751.272460938 l 5
 61.4326171875 730.059570312 l 5
 82.646484375 708.845703125 l 5
 68.50390625 694.704101562 l 5
 47.291015625 715.916992188 l 5
 26.0771484375 694.704101562 l 5
 11.935546875 708.845703125 l 5
 33.1484375 730.059570312 l 5
 11.935546875 751.272460938 l 5
 26.0771484375 765.4140625 l 5
 47.291015625 744.201171875 l 5
480 128 m 2
 480 94.6666666667 484.666666667 73.5 494 64.5 c 128
 503.333333333 55.5 517.666666667 51 537 51 c 0
 542.333333333 51 546.5 49.5 549.5 46.5 c 128
 552.5 43.5 554 39.3333333333 554 34 c 0
 554 29.3333333333 552.666666667 25.6666666667 550 23 c 0
 548 19.6666666667 545 17.6666666667 541 17 c 0
 520.333333333 13.6666666667 500.333333333 9.66666666667 481 5 c 0
 462.333333333 -0.333333333333 448 -4.83333333333 438 -8.5 c 128
 428 -12.1666666667 422 -14 420 -14 c 0
 414 -14 410.333333333 -11.3333333333 409 -6 c 0
 406.333333333 2.66666666667 404 13.1666666667 402 25.5 c 128
 400 37.8333333333 398.666666667 52.6666666667 398 70 c 1
 378 40.6666666667 356.166666667 18.8333333333 332.5 4.5 c 128
 308.833333333 -9.83333333333 278.333333333 -17 241 -17 c 0
 193.666666667 -17 156.666666667 -5 130 19 c 128
 103.333333333 43 90 85.3333333333 90 146 c 2
 90 331 l 2
 90 356.333333333 85.3333333333 374.666666667 76 386 c 0
 66.6666666667 397.333333333 53 404 35 406 c 0
 29.6666666667 406.666666667 25.3333333333 408.166666667 22 410.5 c 128
 18.6666666667 412.833333333 17 416.833333333 17 422.5 c 128
 17 428.166666667 19 432.5 23 435.5 c 128
 27 438.5 31 440 35 440 c 0
 37.6666666667 440 44.6666666667 439.666666667 56 439 c 128
 67.3333333333 438.333333333 80.6666666667 438 96 438 c 128
 111.333333333 438 125.166666667 438.666666667 137.5 440 c 128
 149.833333333 441.333333333 157.333333333 442 160 442 c 0
 164.666666667 442 168.5 440.333333333 171.5 437 c 128
 174.5 433.666666667 176 430 176 426 c 2
 176 171 l 2
 176 120.333333333 183.166666667 82 197.5 56 c 128
 211.833333333 30 233.333333333 17 262 17 c 0
 295.333333333 17 325.666666667 32.5 353 63.5 c 128
 380.333333333 94.5 394 140.333333333 394 201 c 2
 394 331 l 2
 394 356.333333333 389.333333333 374.666666667 380 386 c 128
 370.666666667 397.333333333 357 404 339 406 c 0
 333.666666667 406.666666667 329.333333333 408.166666667 326 410.5 c 128
 322.666666667 412.833333333 321 416.833333333 321 422.5 c 128
 321 428.166666667 322.833333333 432.5 326.5 435.5 c 128
 330.166666667 438.5 334.333333333 440 339 440 c 0
 341.666666667 440 348.666666667 439.666666667 360 439 c 128
 371.333333333 438.333333333 384.666666667 438 400 438 c 128
 415.333333333 438 429.166666667 438.666666667 441.5 440 c 128
 453.833333333 441.333333333 461.333333333 442 464 442 c 0
 468.666666667 442 472.5 440.333333333 475.5 437 c 128
 478.5 433.666666667 480 430 480 426 c 2
 480 128 l 2
EndSplineSet
EndChar

StartChar: quotesingle
Encoding: 39 39 16
GlifName: quotesingle
Width: 188
VWidth: 0
Flags: HW
HStem: 438 276<77 112>
VStem: 51 86<485 702>
LayerCount: 2
Fore
SplineSet
47.291015625 744.201171875 m 5
 68.50390625 765.4140625 l 5
 82.646484375 751.272460938 l 5
 61.4326171875 730.059570312 l 5
 82.646484375 708.845703125 l 5
 68.50390625 694.704101562 l 5
 47.291015625 715.916992188 l 5
 26.0771484375 694.704101562 l 5
 11.935546875 708.845703125 l 5
 33.1484375 730.059570312 l 5
 11.935546875 751.272460938 l 5
 26.0771484375 765.4140625 l 5
 47.291015625 744.201171875 l 5
53 644 m 10
 51.6666666667 654 51 660.333333333 51 663 c 0
 51 682.333333333 54.8333333333 695.666666667 62.5 703 c 128
 70.1666666667 710.333333333 80.6666666667 714 94 714 c 256
 107.333333333 714 117.833333333 710.166666667 125.5 702.5 c 128
 133.166666667 694.833333333 137 681.666666667 137 663 c 0
 137 660.333333333 136.333333333 654 135 644 c 18
 111 455 l 2
 109.666666667 443.666666667 104 438 94 438 c 256
 84 438 78.3333333333 443.666666667 77 455 c 2
 53 644 l 10
EndSplineSet
EndChar

StartChar: quotedbl
Encoding: 34 34 17
GlifName: quotedbl
Width: 344
VWidth: 0
Flags: HW
HStem: 438 276<77 112 233 268>
VStem: 51 86<485 702> 208 86<485 702>
LayerCount: 2
Fore
SplineSet
47.291015625 744.201171875 m 5
 68.50390625 765.4140625 l 5
 82.646484375 751.272460938 l 5
 61.4326171875 730.059570312 l 5
 82.646484375 708.845703125 l 5
 68.50390625 694.704101562 l 5
 47.291015625 715.916992188 l 5
 26.0771484375 694.704101562 l 5
 11.935546875 708.845703125 l 5
 33.1484375 730.059570312 l 5
 11.935546875 751.272460938 l 5
 26.0771484375 765.4140625 l 5
 47.291015625 744.201171875 l 5
210 644 m 2
 208.666666667 654 208 660.333333333 208 663 c 0
 208 682.333333333 211.666666667 695.666666667 219 703 c 128
 226.333333333 710.333333333 236.666666667 714 250 714 c 256
 263.333333333 714 273.833333333 710.166666667 281.5 702.5 c 128
 289.166666667 694.833333333 293 681.666666667 293 663 c 0
 293 660.333333333 292.333333333 654 291 644 c 2
 268 455 l 2
 266.666666667 443.666666667 260.666666667 438 250 438 c 256
 240 438 234.333333333 443.666666667 233 455 c 2
 210 644 l 2
53 644 m 2
 51.6666666667 654 51 660.333333333 51 663 c 0
 51 682.333333333 54.8333333333 695.666666667 62.5 703 c 128
 70.1666666667 710.333333333 80.6666666667 714 94 714 c 256
 107.333333333 714 117.833333333 710.166666667 125.5 702.5 c 128
 133.166666667 694.833333333 137 681.666666667 137 663 c 0
 137 660.333333333 136.333333333 654 135 644 c 2
 111 455 l 2
 109.666666667 443.666666667 104 438 94 438 c 256
 84 438 78.3333333333 443.666666667 77 455 c 2
 53 644 l 2
EndSplineSet
EndChar

StartChar: ampersand
Encoding: 38 38 18
GlifName: ampersand
Width: 733
VWidth: 0
Flags: HW
HStem: -19 52<166 282> -10 55<548 650> 365 46<559 636> 665 26<221 312>
VStem: 29 91<83 203> 122 61<476 612> 353 65<475 634> 600 98<301 365>
LayerCount: 2
Fore
SplineSet
47.291015625 744.201171875 m 1
 68.50390625 765.4140625 l 1
 82.646484375 751.272460938 l 1
 61.4326171875 730.059570312 l 1
 82.646484375 708.845703125 l 1
 68.50390625 694.704101562 l 1
 47.291015625 715.916992188 l 1
 26.0771484375 694.704101562 l 1
 11.935546875 708.845703125 l 1
 33.1484375 730.059570312 l 1
 11.935546875 751.272460938 l 1
 26.0771484375 765.4140625 l 1
 47.291015625 744.201171875 l 1
122 505 m 256
 122 572.333333333 138.666666667 620 172 648 c 256
 206 676.666666667 242.333333333 690.666666667 281 690 c 256
 320.333333333 690 353 677.666666667 379 653 c 128
 405 628.333333333 418 598.333333333 418 563 c 256
 418 528.333333333 408.666666667 495.666666667 390 465 c 256
 366 425 331.333333333 387 286 351 c 257
 328.666666667 291.666666667 376 236.333333333 428 185 c 257
 453.333333333 222.333333333 473.666666667 256.666666667 489 288 c 256
 505 319.333333333 523.333333333 347.666666667 544 373 c 256
 564 397.666666667 590 410 622 410 c 256
 641.333333333 410 658.666666667 403.666666667 674 391 c 256
 690 378.333333333 698 362.333333333 698 343 c 256
 698 325 693.333333333 311 684 301 c 256
 673.333333333 289.666666667 659 284 641 284 c 256
 629 284 618.5 288.333333333 609.5 297 c 128
 600.5 305.666666667 596 317 596 331 c 256
 596 335 596.666666667 338.666666667 598 342 c 128
 599.333333333 345.333333333 600 348.666666667 600 352 c 256
 600 355.333333333 598.666666667 358.333333333 596 361 c 128
 593.333333333 363.666666667 590.333333333 365 587 365 c 256
 567.666666667 365 546 340 522 290 c 256
 502 249.333333333 478.333333333 207.666666667 451 165 c 257
 509 85.6666666667 562.666666667 46 612 46 c 256
 640.666666667 46 666.666666667 60.3333333333 690 89 c 256
 693.333333333 93 697 94.6666666667 701 94 c 256
 705 94 708.166666667 92.8333333333 710.5 90.5 c 128
 712.833333333 88.1666666667 714 85.3333333333 714 82 c 256
 714 77.3333333333 712.666666667 73.3333333333 710 70 c 256
 674.666666667 17.3333333333 625.666666667 -9.33333333333 563 -10 c 256
 497.666666667 -10 439 20.3333333333 387 81 c 257
 324.333333333 14.3333333333 255.666666667 -19 181 -19 c 256
 135 -19 98.1666666667 -6.33333333333 70.5 19 c 128
 42.8333333333 44.3333333333 29 77.3333333333 29 118 c 256
 29 158.666666667 41 194.333333333 65 225 c 128
 89 255.666666667 130.666666667 288.666666667 190 324 c 257
 144.666666667 399.333333333 122 459.666666667 122 505 c 256
266 377 m 257
 303.333333333 413 327.333333333 443.666666667 338 469 c 256
 348 493 353 516 353 538 c 256
 352.333333333 584.666666667 344.666666667 617.333333333 330 636 c 256
 314 655.333333333 294.333333333 665 271 665 c 256
 241 665 219.333333333 656 206 638 c 256
 190.666666667 618 183 593 183 563 c 256
 183 509 210.666666667 447 266 377 c 257
209 296 m 257
 149.666666667 252.666666667 120 207 120 159 c 256
 120 127.666666667 129.5 98.8333333333 148.5 72.5 c 128
 167.5 46.1666666667 196 33 234 33 c 256
 272 33 316 57 366 105 c 257
 308 161.666666667 255.666666667 225.333333333 209 296 c 257
EndSplineSet
EndChar

StartChar: one
Encoding: 49 49 19
GlifName: one
Width: 386
VWidth: 0
Flags: HW
HStem: -3 34<44 130 244 330> 621 36<39 130> 669 19G<210 217>
VStem: 145 86<52 605>
LayerCount: 2
Fore
SplineSet
47.291015625 744.201171875 m 5
 68.50390625 765.4140625 l 5
 82.646484375 751.272460938 l 5
 61.4326171875 730.059570312 l 5
 82.646484375 708.845703125 l 5
 68.50390625 694.704101562 l 5
 47.291015625 715.916992188 l 5
 26.0771484375 694.704101562 l 5
 11.935546875 708.845703125 l 5
 33.1484375 730.059570312 l 5
 11.935546875 751.272460938 l 5
 26.0771484375 765.4140625 l 5
 47.291015625 744.201171875 l 5
145 571 m 2
 145 585.666666667 140 597.333333333 130 606 c 0
 119.333333333 615.333333333 107.333333333 620.333333333 94 621 c 0
 82 621.666666667 69 622.333333333 55 623 c 0
 49.6666666667 623 45.6666666667 624.5 43 627.5 c 128
 40.3333333333 630.5 39 634.666666667 39 640 c 256
 39 645.333333333 40.6666666667 649.5 44 652.5 c 128
 47.3333333333 655.5 51 657 55 657 c 0
 66.3333333333 657 90.3333333333 661.333333333 127 670 c 256
 180.333333333 682 209 688 213 688 c 256
 217.666666667 688 222 686.333333333 226 683 c 0
 229.333333333 680.333333333 230.666666667 676 230 670 c 2
 230 118 l 2
 230 84.6666666667 233.833333333 62.1666666667 241.5 50.5 c 128
 249.166666667 38.8333333333 264.333333333 32.6666666667 287 32 c 2
 318 31 l 2
 323.333333333 31 327.5 29.5 330.5 26.5 c 128
 333.5 23.5 335 19.5 335 14.5 c 128
 335 9.5 333.5 5.33333333333 330.5 2 c 128
 327.5 -1.33333333333 323.333333333 -3 318 -3 c 0
 312 -3 295.833333333 -2.66666666667 269.5 -2 c 128
 243.166666667 -1.33333333333 218.333333333 -1 195 -1 c 2
 179 -1 l 2
 156.333333333 -1 131.666666667 -1.33333333333 105 -2 c 128
 78.3333333333 -2.66666666667 62 -3 56 -3 c 0
 50.6666666667 -3 46.5 -1.33333333333 43.5 2 c 128
 40.5 5.33333333333 39 9.5 39 14.5 c 128
 39 19.5 40.6666666667 23.6666666667 44 27 c 0
 47.3333333333 30.3333333333 51.3333333333 31.6666666667 56 31 c 2
 88 32 l 2
 108.666666667 32.6666666667 123.333333333 39 132 51 c 128
 140.666666667 63 145 85.3333333333 145 118 c 2
 145 571 l 2
EndSplineSet
EndChar

StartChar: c
Encoding: 99 99 20
GlifName: c
Width: 410
VWidth: 0
Flags: HW
HStem: -8 32<189.908 332.753> 424 32<194.709 315.743>
VStem: 18 91<117.715 322.616> 327 66<359.178 415.867>
LayerCount: 2
Fore
SplineSet
402 70 m 256
 408 62 404.242549297 52.7487391177 397 46 c 0
 353 5 309 -8 255 -8 c 256
 105 -8 18 89 18 219 c 256
 18 349 105 456 255 456 c 256
 363 456 393 421 393 389 c 0
 393 364 373 344 348 344 c 256
 323 344 307.159530884 363.002931975 303 389 c 0
 299 414 280.305555556 424 260 424 c 256
 161 424 114 329 114 219 c 256
 114 109 159.390410959 24 255 24 c 256
 309 24 334.87413769 38.6556032673 378 71 c 0
 386 77 396 78 402 70 c 256
EndSplineSet
EndChar

StartChar: plus
Encoding: 43 43 21
GlifName: plus
Width: 616
VWidth: 952
Flags: HW
HStem: 318 34<34 291 326 582>
VStem: 291 34<61 318 352 610>
LayerCount: 2
Fore
SplineSet
47.291015625 744.201171875 m 5
 68.50390625 765.4140625 l 5
 82.646484375 751.272460938 l 5
 61.4326171875 730.059570312 l 5
 82.646484375 708.845703125 l 5
 68.50390625 694.704101562 l 5
 47.291015625 715.916992188 l 5
 26.0771484375 694.704101562 l 5
 11.935546875 708.845703125 l 5
 33.1484375 730.059570312 l 5
 11.935546875 751.272460938 l 5
 26.0771484375 765.4140625 l 5
 47.291015625 744.201171875 l 5
34 327 m 2
 34 344 l 2
 34 350 37 352.666666667 43 352 c 2
 291 352 l 1
 291 601 l 2
 291 607 294 610 300 610 c 2
 317 610 l 2
 323 610 326 607 326 601 c 2
 326 352 l 1
 573 352 l 2
 579 352 582 349.333333333 582 344 c 2
 582 327 l 2
 582 321 579 318 573 318 c 2
 326 318 l 1
 326 70 l 2
 326 64 323 61 317 61 c 2
 300 61 l 2
 294 61 291 64 291 70 c 2
 291 318 l 1
 43 318 l 2
 37 318 34 321 34 327 c 2
EndSplineSet
EndChar

StartChar: numbersign
Encoding: 35 35 22
GlifName: numbersign
Width: 755
VWidth: 0
Flags: HW
HStem: 232 34<35 255 296 428 469 689> 404 34<66 286 328 458 500 720>
DStem2: 217 18 252 18 0.175893 0.984409<-5.56189 217.646 258.6 391.762 432.884 656.091> 390 18 425 18 0.175893 0.984409<-5.56189 217.646 258.6 391.762 432.884 656.091>
LayerCount: 2
Fore
SplineSet
47.291015625 744.201171875 m 5
 68.50390625 765.4140625 l 5
 82.646484375 751.272460938 l 5
 61.4326171875 730.059570312 l 5
 82.646484375 708.845703125 l 5
 68.50390625 694.704101562 l 5
 47.291015625 715.916992188 l 5
 26.0771484375 694.704101562 l 5
 11.935546875 708.845703125 l 5
 33.1484375 730.059570312 l 5
 11.935546875 751.272460938 l 5
 26.0771484375 765.4140625 l 5
 47.291015625 744.201171875 l 5
721 430 m 2
 718 412 l 2
 716.666666667 406 714 403.333333333 710 404 c 2
 493 404 l 1
 469 267 l 1
 682 267 l 2
 688 267 690.666666667 264 690 258 c 2
 688 241 l 2
 687.333333333 235 684.333333333 232 679 232 c 2
 463 232 l 1
 425 18 l 2
 423.666666667 12 420.666666667 9.33333333333 416 10 c 2
 398 10 l 2
 391.333333333 10 388.666666667 12.6666666667 390 18 c 2
 428 232 l 1
 290 232 l 1
 252 18 l 2
 250.666666667 12 248 9.33333333333 244 10 c 2
 226 10 l 2
 219.333333333 10 216.333333333 12.6666666667 217 18 c 2
 255 232 l 1
 42 232 l 2
 36 232 33.3333333333 235 34 241 c 2
 36 258 l 2
 36.6666666667 264 40 267 46 267 c 2
 261 267 l 1
 286 404 l 1
 72 404 l 2
 65.3333333333 404 63 406.666666667 65 412 c 2
 68 430 l 2
 68.6666666667 436 71.6666666667 438.666666667 77 438 c 2
 292 438 l 1
 330 652 l 2
 331.333333333 658 334.333333333 661 339 661 c 2
 357 661 l 2
 363.666666667 661 366.666666667 658 366 652 c 2
 328 438 l 1
 465 438 l 1
 503 652 l 2
 504.333333333 658 507.333333333 661 512 661 c 2
 530 661 l 2
 536.666666667 661 539.333333333 658 538 652 c 2
 500 438 l 1
 713 438 l 2
 719 438.666666667 721.666666667 436 721 430 c 2
433 267 m 1
 458 404 l 1
 321 404 l 1
 296 267 l 1
 433 267 l 1
EndSplineSet
EndChar

StartChar: semicolon
Encoding: 59 59 23
GlifName: semicolon
Width: 205
VWidth: 952
Flags: HW
HStem: 0 103<66 131> 337 103<60 144>
VStem: 50 103<347 430> 132 39<-55 41>
LayerCount: 2
Fore
SplineSet
47.291015625 744.201171875 m 5
 68.50390625 765.4140625 l 5
 82.646484375 751.272460938 l 5
 61.4326171875 730.059570312 l 5
 82.646484375 708.845703125 l 5
 68.50390625 694.704101562 l 5
 47.291015625 715.916992188 l 5
 26.0771484375 694.704101562 l 5
 11.935546875 708.845703125 l 5
 33.1484375 730.059570312 l 5
 11.935546875 751.272460938 l 5
 26.0771484375 765.4140625 l 5
 47.291015625 744.201171875 l 5
50 389 m 256
 50 403 55.1666666667 415 65.5 425 c 128
 75.8333333333 435 88 440 102 440 c 256
 116 440 128 435 138 425 c 128
 148 415 153 403 153 389 c 256
 153 375 148 362.833333333 138 352.5 c 128
 128 342.166666667 116 337 102 337 c 256
 88 337 75.8333333333 342.166666667 65.5 352.5 c 128
 55.1666666667 362.833333333 50 375 50 389 c 256
43 -121 m 0
 103 -79.6666666667 132.666666667 -40.6666666667 132 -4 c 0
 132 2.66666666667 131.666666667 8 131 12 c 1
 124.333333333 4 114.666666667 0 102 0 c 0
 88 0 75.8333333333 5 65.5 15 c 128
 55.1666666667 25 50 37 50 51 c 256
 50 65.6666666667 55.1666666667 78 65.5 88 c 128
 75.8333333333 98 89.3333333333 103 106 103 c 0
 126 103 141.833333333 96.1666666667 153.5 82.5 c 128
 165.166666667 68.8333333333 171 48 171 20 c 0
 171 -50 133 -104.333333333 57 -143 c 0
 53 -145 50 -146 48 -146 c 0
 41.3333333333 -146 37.1666666667 -143.166666667 35.5 -137.5 c 128
 33.8333333333 -131.833333333 36.3333333333 -126.333333333 43 -121 c 0
EndSplineSet
EndChar

StartChar: comma
Encoding: 44 44 24
GlifName: comma
Width: 203
VWidth: 952
Flags: HW
HStem: 0 103<64 129>
VStem: 130 39<-55 41>
LayerCount: 2
Fore
SplineSet
47.291015625 744.201171875 m 5
 68.50390625 765.4140625 l 5
 82.646484375 751.272460938 l 5
 61.4326171875 730.059570312 l 5
 82.646484375 708.845703125 l 5
 68.50390625 694.704101562 l 5
 47.291015625 715.916992188 l 5
 26.0771484375 694.704101562 l 5
 11.935546875 708.845703125 l 5
 33.1484375 730.059570312 l 5
 11.935546875 751.272460938 l 5
 26.0771484375 765.4140625 l 5
 47.291015625 744.201171875 l 5
41 -121 m 0
 101 -79.6666666667 130.666666667 -40.6666666667 130 -4 c 0
 130 6 130 6 130 12 c 1
 123.333333333 4 113.333333333 0 100 0 c 0
 86 0 74 5 64 15 c 128
 54 25 49 37 49 51 c 256
 49 65.6666666667 54 78 64 88 c 128
 74 98 87.3333333333 103 104 103 c 0
 124 103 140 96.1666666667 152 82.5 c 128
 164 68.8333333333 170 48 170 20 c 0
 170 -50 131.666666667 -104.333333333 55 -143 c 0
 51 -145 48 -146 46 -146 c 0
 39.3333333333 -146 35.1666666667 -143.166666667 33.5 -137.5 c 128
 31.8333333333 -131.833333333 34.3333333333 -126.333333333 41 -121 c 0
EndSplineSet
EndChar

StartChar: colon
Encoding: 58 58 25
GlifName: colon
Width: 137
VWidth: 952
Flags: HW
HStem: 0 103<27 110> 337 103<27 110>
VStem: 17 103<10 93 347 430>
LayerCount: 2
Fore
SplineSet
47.291015625 744.201171875 m 5
 68.50390625 765.4140625 l 5
 82.646484375 751.272460938 l 5
 61.4326171875 730.059570312 l 5
 82.646484375 708.845703125 l 5
 68.50390625 694.704101562 l 5
 47.291015625 715.916992188 l 5
 26.0771484375 694.704101562 l 5
 11.935546875 708.845703125 l 5
 33.1484375 730.059570312 l 5
 11.935546875 751.272460938 l 5
 26.0771484375 765.4140625 l 5
 47.291015625 744.201171875 l 5
17 389 m 256
 17 403 22.1666666667 415 32.5 425 c 128
 42.8333333333 435 55 440 69 440 c 256
 83 440 95 435 105 425 c 128
 115 415 120 403 120 389 c 256
 120 375 115 362.833333333 105 352.5 c 128
 95 342.166666667 83 337 69 337 c 256
 55 337 42.8333333333 342.166666667 32.5 352.5 c 128
 22.1666666667 362.833333333 17 375 17 389 c 256
17 51 m 256
 17 65 22.1666666667 77.1666666667 32.5 87.5 c 128
 42.8333333333 97.8333333333 55 103 69 103 c 256
 83 103 95 97.8333333333 105 87.5 c 128
 115 77.1666666667 120 65 120 51 c 256
 120 37 115 25 105 15 c 128
 95 5 83 0 69 0 c 256
 55 0 42.8333333333 5 32.5 15 c 128
 22.1666666667 25 17 37 17 51 c 256
EndSplineSet
EndChar

StartChar: period
Encoding: 46 46 26
GlifName: period
Width: 137
VWidth: 952
Flags: HW
HStem: 0 103<27 110>
VStem: 17 103<10 93>
LayerCount: 2
Fore
SplineSet
47.291015625 744.201171875 m 5
 68.50390625 765.4140625 l 5
 82.646484375 751.272460938 l 5
 61.4326171875 730.059570312 l 5
 82.646484375 708.845703125 l 5
 68.50390625 694.704101562 l 5
 47.291015625 715.916992188 l 5
 26.0771484375 694.704101562 l 5
 11.935546875 708.845703125 l 5
 33.1484375 730.059570312 l 5
 11.935546875 751.272460938 l 5
 26.0771484375 765.4140625 l 5
 47.291015625 744.201171875 l 5
17 51 m 256
 17 65 22.1666666667 77.1666666667 32.5 87.5 c 128
 42.8333333333 97.8333333333 55 103 69 103 c 256
 83 103 95 97.8333333333 105 87.5 c 128
 115 77.1666666667 120 65 120 51 c 256
 120 37 115 25 105 15 c 128
 95 5 83 0 69 0 c 256
 55 0 42.8333333333 5 32.5 15 c 128
 22.1666666667 25 17 37 17 51 c 256
EndSplineSet
EndChar

StartChar: exclam
Encoding: 33 33 27
GlifName: exclam
Width: 171
VWidth: 0
Flags: HW
HStem: 0 103<44 127> 671 19G<60 111>
VStem: 34 103<10 93 403 680> 69 34<175 387>
LayerCount: 2
Fore
SplineSet
47.291015625 744.201171875 m 5
 68.50390625 765.4140625 l 5
 82.646484375 751.272460938 l 5
 61.4326171875 730.059570312 l 5
 82.646484375 708.845703125 l 5
 68.50390625 694.704101562 l 5
 47.291015625 715.916992188 l 5
 26.0771484375 694.704101562 l 5
 11.935546875 708.845703125 l 5
 33.1484375 730.059570312 l 5
 11.935546875 751.272460938 l 5
 26.0771484375 765.4140625 l 5
 47.291015625 744.201171875 l 5
34 51 m 256
 34 65 39.1666666667 77.1666666667 49.5 87.5 c 128
 59.8333333333 97.8333333333 72 103 86 103 c 256
 100 103 112 97.8333333333 122 87.5 c 128
 132 77.1666666667 137 65 137 51 c 256
 137 37 132 25 122 15 c 128
 112 5 100 0 86 0 c 256
 72 0 59.8333333333 5 49.5 15 c 128
 39.1666666667 25 34 37 34 51 c 256
34 610 m 0
 34 664 51.3333333333 690.666666667 86 690 c 256
 120 690 137 663.333333333 137 610 c 0
 137 587.333333333 131.333333333 531.166666667 120 441.5 c 128
 108.666666667 351.833333333 103 267.333333333 103 188 c 256
 103 182.666666667 101.333333333 178.333333333 98 175 c 128
 94.6666666667 171.666666667 90.6666666667 170 86 170 c 256
 80.6666666667 170 76.5 171.666666667 73.5 175 c 128
 70.5 178.333333333 69 182.666666667 69 188 c 0
 69 267.333333333 63.1666666667 351.833333333 51.5 441.5 c 128
 39.8333333333 531.166666667 34 587.333333333 34 610 c 0
EndSplineSet
EndChar

StartChar: hyphen
Encoding: 45 45 28
GlifName: hyphen
Width: 330
VWidth: 952
Flags: HW
HStem: 318 34<34 296>
VStem: 34 262<318 352>
LayerCount: 2
Fore
SplineSet
47.291015625 744.201171875 m 5
 68.50390625 765.4140625 l 5
 82.646484375 751.272460938 l 5
 61.4326171875 730.059570312 l 5
 82.646484375 708.845703125 l 5
 68.50390625 694.704101562 l 5
 47.291015625 715.916992188 l 5
 26.0771484375 694.704101562 l 5
 11.935546875 708.845703125 l 5
 33.1484375 730.059570312 l 5
 11.935546875 751.272460938 l 5
 26.0771484375 765.4140625 l 5
 47.291015625 744.201171875 l 5
34 327 m 2
 34 344 l 2
 34 350 37 352.666666667 43 352 c 2
 288 352 l 2
 294 352 296.666666667 349.333333333 296 344 c 2
 296 327 l 2
 296 321 293.333333333 318 288 318 c 2
 43 318 l 2
 37 318 34 321 34 327 c 2
EndSplineSet
EndChar

StartChar: slash
Encoding: 47 47 29
GlifName: slash
Width: 506
VWidth: 0
Flags: HW
HStem: 671 19G<473 504>
DStem2: 2 -29 44 -29 0.544791 0.838572<0.1206 868.818>
LayerCount: 2
Fore
SplineSet
47.291015625 744.201171875 m 5
 68.50390625 765.4140625 l 5
 82.646484375 751.272460938 l 5
 61.4326171875 730.059570312 l 5
 82.646484375 708.845703125 l 5
 68.50390625 694.704101562 l 5
 47.291015625 715.916992188 l 5
 26.0771484375 694.704101562 l 5
 11.935546875 708.845703125 l 5
 33.1484375 730.059570312 l 5
 11.935546875 751.272460938 l 5
 26.0771484375 765.4140625 l 5
 47.291015625 744.201171875 l 5
44 -29 m 2
 40 -35.6666666667 35 -38.6666666667 29 -38 c 2
 6 -38 l 2
 2 -38 0 -36.3333333333 0 -33 c 0
 0 -31.6666666667 0.666666666667 -30.3333333333 2 -29 c 2
 463 681 l 2
 467 687.666666667 472 690.666666667 478 690 c 2
 501 690 l 2
 505 690 507 688.666666667 507 686 c 0
 507 684.666666667 506.333333333 683 505 681 c 2
 44 -29 l 2
EndSplineSet
EndChar

StartChar: equal
Encoding: 61 61 30
GlifName: equal
Width: 616
VWidth: 952
Flags: HW
HStem: 232 34<34 582> 404 34<34 582>
LayerCount: 2
Fore
SplineSet
47.291015625 744.201171875 m 5
 68.50390625 765.4140625 l 5
 82.646484375 751.272460938 l 5
 61.4326171875 730.059570312 l 5
 82.646484375 708.845703125 l 5
 68.50390625 694.704101562 l 5
 47.291015625 715.916992188 l 5
 26.0771484375 694.704101562 l 5
 11.935546875 708.845703125 l 5
 33.1484375 730.059570312 l 5
 11.935546875 751.272460938 l 5
 26.0771484375 765.4140625 l 5
 47.291015625 744.201171875 l 5
34 241 m 2
 34 258 l 2
 34 264 37 267 43 267 c 2
 573 267 l 2
 579 267 582 264 582 258 c 2
 582 241 l 2
 582 235 579 232 573 232 c 2
 43 232 l 2
 37 232 34 235 34 241 c 2
34 412 m 2
 34 430 l 2
 34 436 37 438.666666667 43 438 c 2
 573 438 l 2
 579 438 582 435.333333333 582 430 c 2
 582 412 l 2
 582 406 579 403.333333333 573 404 c 2
 43 404 l 2
 37 403.333333333 34 406 34 412 c 2
EndSplineSet
EndChar

StartChar: e
Encoding: 101 101 31
GlifName: e
Width: 460
VWidth: 0
Flags: HW
HStem: -8 32<193.365 331.94> 268 32<122 345.997> 424 32<183.942 305.597>
VStem: 18 96<117.94 291.386> 346 96<272.5 358.979>
LayerCount: 2
Fore
SplineSet
335 300 m 2
 342 300 346 305 346 311 c 0
 346 371 321 424 250 424 c 0
 167 424 137 371 122 300 c 1
 335 300 l 2
434 268 m 2
 117 268 l 1
 115 251 114 234 114 218 c 0
 114 111 157 24 254 24 c 0
 320 24 352 46 402 88 c 0
 410 94 420 95 426 87 c 0
 432 79 428 70 421 63 c 0
 388 30 343 -8 255 -8 c 0
 105 -8 18 89 18 218 c 0
 18 349 123 456 255 456 c 0
 356 456 442 379 442 275 c 0
 442 270 440 268 434 268 c 2
EndSplineSet
EndChar

StartChar: f
Encoding: 102 102 32
GlifName: f
Width: 289
VWidth: 0
Flags: W
HStem: -1 32<18.0051 53 184.651 270.995> 416 32<19 95 175 289> 657 32<213.163 303.422>
VStem: 95 80<36.8625 416 448 612.986>
LayerCount: 2
Fore
SplineSet
175 516 m 2
 175 448 l 1
 289 448 l 1
 289 416 l 1
 175 416 l 1
 175 120 l 2
 175 60 177 34 217 32 c 2
 255 31 l 2
 264 31 271 25 271 15 c 0
 271 5 264 -1 255 -1 c 0
 225 -1 182 -0 143 0 c 2
 127 0 l 2
 95 0 59 -1 34 -1 c 0
 25 -1 18 5 18 15 c 0
 18 25 25 31 34 31 c 2
 53 32 l 2
 92 34 95 60 95 120 c 2
 95 416 l 1
 19 416 l 1
 19 448 l 1
 95 448 l 1
 95 516 l 2
 95 620 143 689 273 689 c 0
 318 689 391 684 391 642 c 0
 391 620 373 602 351 602 c 0
 328 602 319 616 315 623 c 0
 312 629 303 657 265 657 c 0
 208 657 175 622 175 516 c 2
EndSplineSet
EndChar

StartChar: v
Encoding: 118 118 33
GlifName: v
Width: 539
VWidth: 952
Flags: HW
HStem: -17 20G<267 284> 406 34<22 51 206 235 384 413 463 517>
DStem2: 303 98 251 -1 0.384283 -0.923215<-315.583 0> 303 98 299 -1 0.384283 0.923215<0 325.745>
LayerCount: 2
Fore
SplineSet
47.291015625 744.201171875 m 5
 68.50390625 765.4140625 l 5
 82.646484375 751.272460938 l 5
 61.4326171875 730.059570312 l 5
 82.646484375 708.845703125 l 5
 68.50390625 694.704101562 l 5
 47.291015625 715.916992188 l 5
 26.0771484375 694.704101562 l 5
 11.935546875 708.845703125 l 5
 33.1484375 730.059570312 l 5
 11.935546875 751.272460938 l 5
 26.0771484375 765.4140625 l 5
 47.291015625 744.201171875 l 5
51 405 m 2
 34 406 l 2
 28.6666666667 406 24.6666666667 407.333333333 22 410 c 256
 18.6666666667 413.333333333 17 417.666666667 17 423 c 256
 17 428.333333333 18.6666666667 432.333333333 22 435 c 256
 25.3333333333 438.333333333 29.3333333333 440 34 440 c 256
 40 440 51.6666666667 439.666666667 69 439 c 256
 86.3333333333 438.333333333 106.333333333 438 129 438 c 256
 151.666666667 438 171.666666667 438.333333333 189 439 c 256
 206.333333333 439.666666667 217.666666667 440 223 440 c 256
 228.333333333 440 232.333333333 438.333333333 235 435 c 256
 238.333333333 431.666666667 240 427.666666667 240 423 c 256
 240 417.666666667 238.333333333 413.333333333 235 410 c 256
 232.333333333 407.333333333 228.333333333 406 223 406 c 2
 206 405 l 2
 194 404.333333333 186.666666667 399.333333333 184 390 c 0
 183.333333333 387.333333333 184 384 186 380 c 258
 303 98 l 1
 421 382 l 258
 427.666666667 396.666666667 425 404.333333333 413 405 c 2
 396 406 l 258
 390.666666667 406 386.666666667 407.333333333 384 410 c 256
 380.666666667 413.333333333 379 417.666666667 379 423 c 256
 379 428.333333333 380.666666667 432.333333333 384 435 c 256
 387.333333333 438.333333333 391.333333333 440 396 440 c 256
 398.666666667 440 404.666666667 439.666666667 414 439 c 128
 423.333333333 438.333333333 435.333333333 438 450 438 c 256
 463.333333333 438 475.333333333 438.333333333 486 439 c 128
 496.666666667 439.666666667 503 440 505 440 c 0
 510.333333333 440 514.333333333 438.333333333 517 435 c 256
 520.333333333 431.666666667 522 427.666666667 522 423 c 256
 522 417.666666667 520 413.333333333 516 410 c 0
 513.333333333 407.333333333 509.666666667 406 505 406 c 2
 489 405 l 2
 475 404.333333333 463.666666667 394 455 374 c 258
 299 -1 l 2
 294.333333333 -11.6666666667 286.333333333 -17 275 -17 c 256
 263.666666667 -17 255.666666667 -11.6666666667 251 -1 c 2
 95 374 l 2
 86.3333333333 393.333333333 71.6666666667 403.666666667 51 405 c 2
EndSplineSet
EndChar

StartChar: w
Encoding: 119 119 34
GlifName: w
Width: 747
VWidth: 952
Flags: HW
HStem: -17 20G<247 264 495 512> 406 34<22 51 184 235 593 622 671 726>
DStem2: 283 110 232 -1 0.343274 -0.939235<-296.884 0> 283 110 278 -1 0.340353 0.940298<0 189.779> 418 421 380 277 0.3429 -0.939372<122.028 330.514> 531 110 527 -1 0.343274 0.939235<0 307.473>
LayerCount: 2
Fore
SplineSet
47.291015625 744.201171875 m 5
 68.50390625 765.4140625 l 5
 82.646484375 751.272460938 l 5
 61.4326171875 730.059570312 l 5
 82.646484375 708.845703125 l 5
 68.50390625 694.704101562 l 5
 47.291015625 715.916992188 l 5
 26.0771484375 694.704101562 l 5
 11.935546875 708.845703125 l 5
 33.1484375 730.059570312 l 5
 11.935546875 751.272460938 l 5
 26.0771484375 765.4140625 l 5
 47.291015625 744.201171875 l 5
51 405 m 2
 34 406 l 2
 28.6666666667 406 24.5 407.5 21.5 410.5 c 128
 18.5 413.5 17 417.5 17 422.5 c 128
 17 427.5 18.6666666667 431.666666667 22 435 c 128
 25.3333333333 438.333333333 29.3333333333 440 34 440 c 0
 40 440 51.5 439.666666667 68.5 439 c 128
 85.5 438.333333333 105.5 438 128.5 438 c 128
 151.5 438 171.5 438.333333333 188.5 439 c 128
 205.5 439.666666667 217 440 223 440 c 0
 228.333333333 440 232.5 438.333333333 235.5 435 c 128
 238.5 431.666666667 240 427.5 240 422.5 c 128
 240 417.5 238.333333333 413.5 235 410.5 c 128
 231.666666667 407.5 227.666666667 406 223 406 c 2
 206 405 l 2
 193.333333333 404.333333333 186 399.333333333 184 390 c 0
 183.333333333 387.333333333 184 383.333333333 186 378 c 2
 283 110 l 1
 395 421 l 2
 397 427 400.833333333 430 406.5 430 c 128
 412.166666667 430 416 427 418 421 c 2
 531 110 l 1
 630 382 l 2
 635.333333333 396.666666667 632.666666667 404.333333333 622 405 c 2
 605 406 l 2
 599.666666667 406 595.5 407.5 592.5 410.5 c 128
 589.5 413.5 588 417.5 588 422.5 c 128
 588 427.5 589.5 431.666666667 592.5 435 c 128
 595.5 438.333333333 599.666666667 440 605 440 c 0
 607.666666667 440 614 439.666666667 624 439 c 128
 634 438.333333333 646.166666667 438 660.5 438 c 128
 674.833333333 438 686.666666667 438.333333333 696 439 c 128
 705.333333333 439.666666667 711 440 713 440 c 0
 718.333333333 440 722.5 438.333333333 725.5 435 c 128
 728.5 431.666666667 730 427.5 730 422.5 c 128
 730 417.5 728.166666667 413.5 724.5 410.5 c 128
 720.833333333 407.5 717 406 713 406 c 2
 697 405 l 2
 681.666666667 404.333333333 670.666666667 394 664 374 c 2
 527 -1 l 2
 523 -11.6666666667 515.333333333 -17 504 -17 c 128
 492.666666667 -17 485 -11.6666666667 481 -1 c 2
 380 277 l 1
 278 -1 l 2
 274 -11.6666666667 266.666666667 -17 256 -17 c 0
 244 -17 236 -11.6666666667 232 -1 c 2
 95 374 l 2
 87.6666666667 393.333333333 73 403.666666667 51 405 c 2
EndSplineSet
EndChar

StartChar: y
Encoding: 121 121 35
GlifName: y
Width: 539
VWidth: 952
Flags: HW
HStem: -276 83<117 183> 406 34<22 51 206 235 384 413 489 517>
DStem2: 303 98 256 -13 0.383665 -0.923472<-315.584 0> 256 -13 212 -209 0.384615 0.923077<-197.088 0 120.772 446.508>
LayerCount: 2
Fore
SplineSet
47.291015625 744.201171875 m 5
 68.50390625 765.4140625 l 5
 82.646484375 751.272460938 l 5
 61.4326171875 730.059570312 l 5
 82.646484375 708.845703125 l 5
 68.50390625 694.704101562 l 5
 47.291015625 715.916992188 l 5
 26.0771484375 694.704101562 l 5
 11.935546875 708.845703125 l 5
 33.1484375 730.059570312 l 5
 11.935546875 751.272460938 l 5
 26.0771484375 765.4140625 l 5
 47.291015625 744.201171875 l 5
104 -243 m 256
 104 -233.666666667 107 -225.666666667 113 -219 c 256
 123 -209 137 -200.333333333 155 -193 c 256
 175 -185.666666667 193.333333333 -163 210 -125 c 2
 256 -13 l 1
 95 374 l 2
 87 393.333333333 72.3333333333 403.666666667 51 405 c 2
 34 406 l 2
 28.6666666667 406 24.5 407.5 21.5 410.5 c 128
 18.5 413.5 17 417.5 17 422.5 c 128
 17 427.5 18.6666666667 431.666666667 22 435 c 128
 25.3333333333 438.333333333 29.3333333333 440 34 440 c 0
 40 440 51.5 439.666666667 68.5 439 c 128
 85.5 438.333333333 105.5 438 128.5 438 c 128
 151.5 438 171.5 438.333333333 188.5 439 c 128
 205.5 439.666666667 217 440 223 440 c 0
 228.333333333 440 232.5 438.333333333 235.5 435 c 128
 238.5 431.666666667 240 427.5 240 422.5 c 128
 240 417.5 238.333333333 413.5 235 410.5 c 128
 231.666666667 407.5 227.666666667 406 223 406 c 2
 206 405 l 2
 194 404.333333333 186.666666667 399.333333333 184 390 c 0
 183.333333333 387.333333333 184 384 186 380 c 2
 303 98 l 1
 421 382 l 2
 427 396.666666667 424.333333333 404.333333333 413 405 c 2
 396 406 l 2
 390.666666667 406 386.5 407.5 383.5 410.5 c 128
 380.5 413.5 379 417.5 379 422.5 c 128
 379 427.5 380.666666667 431.666666667 384 435 c 128
 387.333333333 438.333333333 391.333333333 440 396 440 c 0
 398.666666667 440 405 439.666666667 415 439 c 128
 425 438.333333333 437.166666667 438 451.5 438 c 128
 465.833333333 438 477.833333333 438.333333333 487.5 439 c 128
 497.166666667 439.666666667 503 440 505 440 c 0
 510.333333333 440 514.5 438.333333333 517.5 435 c 128
 520.5 431.666666667 522 427.5 522 422.5 c 128
 522 417.5 520 413.666666667 516 411 c 0
 512 407.666666667 508.333333333 406 505 406 c 2
 489 405 l 2
 475 404.333333333 463.666666667 394 455 374 c 2
 212 -209 l 2
 193.333333333 -254.333333333 168.333333333 -276.666666667 137 -276 c 0
 127.666666667 -276 119.666666667 -273 113 -267 c 256
 107 -260.333333333 104 -252.333333333 104 -243 c 256
EndSplineSet
EndChar

StartChar: z
Encoding: 122 122 36
GlifName: z
Width: 442
VWidth: 952
Flags: HW
HStem: 0 34<150 327> 404 34<114 287>
VStem: 56 31<328 374>
DStem2: 37 17 150 34 0.542221 0.840236<75.8558 460.189>
LayerCount: 2
Fore
SplineSet
47.291015625 744.201171875 m 5
 68.50390625 765.4140625 l 5
 82.646484375 751.272460938 l 5
 61.4326171875 730.059570312 l 5
 82.646484375 708.845703125 l 5
 68.50390625 694.704101562 l 5
 47.291015625 715.916992188 l 5
 26.0771484375 694.704101562 l 5
 11.935546875 708.845703125 l 5
 33.1484375 730.059570312 l 5
 11.935546875 751.272460938 l 5
 26.0771484375 765.4140625 l 5
 47.291015625 744.201171875 l 5
82 438 m 2
 389 438 l 2
 395.666666667 438 399 435 399 429 c 0
 399 427 398 424.333333333 396 421 c 2
 150 34 l 1
 282 37 l 2
 316 37.6666666667 347.333333333 59.6666666667 376 103 c 0
 383.333333333 114.333333333 389.333333333 120 394 120 c 0
 404.666666667 120 409.666666667 114.333333333 409 103 c 2
 399 17 l 2
 397.666666667 5.66666666667 391.333333333 0 380 0 c 2
 45 0 l 2
 38.3333333333 0 34.6666666667 3.33333333333 34 10 c 0
 34 12 35 14.3333333333 37 17 c 2
 287 404 l 1
 156 402 l 2
 122.666666667 401.333333333 100 382.333333333 88 345 c 0
 84 333.666666667 78 328 70 328 c 0
 59.3333333333 328 54.6666666667 333.666666667 56 345 c 2
 63 421 l 2
 64.3333333333 432.333333333 70.6666666667 438 82 438 c 2
EndSplineSet
EndChar

StartChar: a
Encoding: 97 97 37
GlifName: a
Width: 453
VWidth: 0
Flags: HW
HStem: -8 38<98.5 231.172 357.5 444.778> 424 32<138.953 259.33>
VStem: 18 96<44.9761 142.293> 26 90<319.481 406.1> 291 80<71.0915 242 267.762 398.789>
LayerCount: 2
Fore
SplineSet
291 242 m 5xe8
 208 208 114 191 114 99 c 4
 114 58 138 30 178 30 c 260
 201 30 236 42 279 78 c 4
 287 84 291 92 291 101 c 6
 291 242 l 5xe8
371 102 m 6
 371 66 374 31 403 31 c 260
 413 31 424 37 433 42 c 260
 436 44 441 47 445 47 c 4
 453 47 461 40 461 31 c 260
 461 26 458 21 455 18 c 12
 434 0 408 -9 377 -9 c 4
 338 -9 309 10 291 49 c 5
 245 10 201 -8 128 -8 c 260
 69 -8 18 29 18 86 c 260xe8
 18 186 196 237 279 271 c 4
 287 274 291 281 291 290 c 6
 291 339 l 6
 291 400 256 424 196 424 c 260
 145 424 116 401 116 358 c 260
 116 333 96 313 71 313 c 260
 46 313 26 333 26 358 c 260xd8
 26 425 122 456 209 456 c 260
 310 456 371 422 371 307 c 6
 371 102 l 6
EndSplineSet
EndChar

StartChar: k
Encoding: 107 107 38
GlifName: k
Width: 503
VWidth: 0
Flags: W
HStem: -1 32<18.0051 53 184.651 250.995 439.323 483.995> 406 32<268.005 318.272 366.062 438.994> 641 32<31.0044 89.8318>
VStem: 95 80<36.8625 182 230 639.351>
DStem2: 175 230 245 259 0.676049 0.736857<68.6923 218.693> 245 259 190 199 0.674269 -0.738485<7.22431 290.16>
LayerCount: 2
Fore
SplineSet
95 120 m 2
 95 609 l 2
 95 627 81 641 63 641 c 2
 47 641 l 2
 37 641 31 648 31 657 c 0
 31 666 37 673 47 673 c 0
 81 673 147 687 157 689 c 0
 167 691 175 681 175 671 c 2
 175 230 l 1
 222 281 318 386 318 386 c 2
 324 393 318 406 309 406 c 2
 284 406 l 2
 275 406 268 413 268 422 c 0
 268 431 275 438 284 438 c 0
 300 438 335 437 355 437 c 0
 375 437 406 438 422 438 c 0
 431 438 439 432 439 422 c 0
 439 414 431 406 422 406 c 2
 395 406 l 2
 386 406 375 400 364 388 c 2
 245 259 l 1
 434 52 l 2
 444 41 456 34 468 31 c 0
 479 28 484 24 484 15 c 0
 484 6 477 -1 468 -1 c 0
 459 -1 439 -0 430 0 c 0
 421 0 400 -1 391 -1 c 0
 382 -1 369 4 363 11 c 2
 190 199 l 1
 175 182 l 1
 175 120 l 2
 175 60 177 34 217 32 c 2
 235 31 l 2
 244 31 251 25 251 15 c 0
 251 5 244 -1 235 -1 c 0
 210 -1 175 -0 143 0 c 2
 127 0 l 2
 95 0 59 -1 34 -1 c 0
 25 -1 18 5 18 15 c 0
 18 25 25 31 34 31 c 2
 53 32 l 2
 92 34 95 60 95 120 c 2
EndSplineSet
EndChar

StartChar: braceleft
Encoding: 123 123 39
Width: 1050
Flags: H
LayerCount: 2
Back
SplineSet
68 426 m 1
 0 426 l 1
 0 462 l 1
 234 462 l 1
 234 426 l 1
 166 426 l 1
 303 96 l 1
 440 426 l 1
 385 426 l 1
 385 462 l 1
 529 462 l 1
 529 426 l 1
 474 426 l 1
 289 -18 l 1
 253 -18 l 1
 68 426 l 1
EndSplineSet
Fore
Validated: 1
EndChar

StartChar: space
Encoding: 32 32 40
GlifName: space
Width: 360
VWidth: 0
Flags: HW
LayerCount: 2
Back
SplineSet
-582.857421875 582.857421875 m 1
 0 582.857421875 l 1
 0 0 l 1
 -582.857421875 0 l 1
 -582.857421875 582.857421875 l 1
0 582.857421875 m 1
 360 582.857421875 l 1
 360 222.857421875 l 1
 0 222.857421875 l 1
 0 582.857421875 l 1
137.142578125 222.857421875 m 1
 360 222.857421875 l 1
 360 0 l 1
 137.142578125 0 l 1
 137.142578125 222.857421875 l 1
0 137.142578125 m 1
 137.142578125 137.142578125 l 1
 137.142578125 0 l 1
 0 0 l 1
 0 137.142578125 l 1
0 222.857421875 m 1
 85.7138671875 222.857421875 l 1
 85.7138671875 137.142578125 l 1
 0 137.142578125 l 1
 0 222.857421875 l 1
85.7138671875 222.857421875 m 1
 137.142578125 222.857421875 l 1
 137.142578125 171.428710938 l 1
 85.7138671875 171.428710938 l 1
 85.7138671875 222.857421875 l 1
102.857421875 171.428710938 m 5
 137.142578125 171.428710938 l 5
 137.142578125 137.142578125 l 5
 102.857421875 137.142578125 l 5
 102.857421875 171.428710938 l 5
85.7138671875 171.428710938 m 5
 102.857421875 171.428710938 l 5
 102.857421875 154.286132812 l 5
 85.7138671875 154.286132812 l 5
 85.7138671875 171.428710938 l 5
85.7138671875 154.286132812 m 1
 102.857421875 154.286132812 l 1
 102.857421875 137.142578125 l 1
 85.7138671875 137.142578125 l 1
 85.7138671875 154.286132812 l 1
EndSplineSet
EndChar

StartChar: x
Encoding: 120 120 41
GlifName: x
Width: 561
VWidth: 952
Flags: HW
HStem: -2 34<30 71 168 213 317 367 480 540> 406 34<22 51 195 245 336 377 438 507>
DStem2: 120 64 158 56 0.642612 0.766192<7.59816 176.801 269.732 425.423> 293 270 237 204 0.643298 -0.765616<-157.755 0 50.0142 220.553>
LayerCount: 2
Fore
SplineSet
47.291015625 744.201171875 m 5
 68.50390625 765.4140625 l 5
 82.646484375 751.272460938 l 5
 61.4326171875 730.059570312 l 5
 82.646484375 708.845703125 l 5
 68.50390625 694.704101562 l 5
 47.291015625 715.916992188 l 5
 26.0771484375 694.704101562 l 5
 11.935546875 708.845703125 l 5
 33.1484375 730.059570312 l 5
 11.935546875 751.272460938 l 5
 26.0771484375 765.4140625 l 5
 47.291015625 744.201171875 l 5
206 376 m 2
 293 270 l 1
 387 382 l 2
 389.666666667 385.333333333 390.666666667 388.666666667 390 392 c 0
 390 398.666666667 385.666666667 402.666666667 377 404 c 2
 349 406 l 2
 343 406.666666667 338.666666667 408 336 410 c 0
 332.666666667 413.333333333 331 417.5 331 422.5 c 128
 331 427.5 332.666666667 431.666666667 336 435 c 128
 339.333333333 438.333333333 343.666666667 440 349 440 c 0
 351.666666667 440 360.333333333 439.666666667 375 439 c 128
 389.666666667 438.333333333 404.666666667 438 420 438 c 0
 433.333333333 438 448.5 438.333333333 465.5 439 c 128
 482.5 439.666666667 492 440 494 440 c 0
 499.333333333 440 503.5 438.333333333 506.5 435 c 128
 509.5 431.666666667 511 427.5 511 422.5 c 128
 511 417.5 509.333333333 413.333333333 506 410 c 0
 503.333333333 407.333333333 499.333333333 406 494 406 c 2
 468 404 l 2
 455.333333333 403.333333333 442.666666667 395.666666667 430 381 c 2
 316 244 l 1
 475 54 l 2
 485.666666667 40.6666666667 497.333333333 33.6666666667 510 33 c 2
 528 32 l 2
 533.333333333 32 537.5 30.5 540.5 27.5 c 128
 543.5 24.5 545 20.5 545 15.5 c 128
 545 10.5 543.333333333 6.33333333333 540 3 c 128
 536.666666667 -0.333333333333 532.666666667 -2 528 -2 c 0
 522 -2 510.5 -1.66666666667 493.5 -1 c 128
 476.5 -0.333333333333 456.5 0 433.5 0 c 128
 410.5 0 388.833333333 -0.333333333333 368.5 -1 c 128
 348.166666667 -1.66666666667 335.333333333 -2 330 -2 c 0
 324.666666667 -2 320.333333333 -0.333333333333 317 3 c 128
 313.666666667 6.33333333333 312 10.5 312 15.5 c 128
 312 20.5 313.666666667 24.5 317 27.5 c 128
 320.333333333 30.5 324.666666667 32 330 32 c 2
 356 33 l 2
 362.666666667 33 366.333333333 36.6666666667 367 44 c 0
 367 48.6666666667 363.666666667 54.6666666667 357 62 c 2
 260 177 l 1
 158 56 l 2
 155.333333333 52.6666666667 154 49 154 45 c 0
 154 38.3333333333 158.666666667 34.6666666667 168 34 c 2
 201 32 l 2
 206.333333333 32 210.5 30.5 213.5 27.5 c 128
 216.5 24.5 218 20.5 218 15.5 c 128
 218 10.5 216.5 6.33333333333 213.5 3 c 128
 210.5 -0.333333333333 206.333333333 -2 201 -2 c 0
 198.333333333 -2 187.333333333 -1.66666666667 168 -1 c 128
 148.666666667 -0.333333333333 131.333333333 0 116 0 c 0
 102.666666667 0 87.3333333333 -0.333333333333 70 -1 c 128
 52.6666666667 -1.66666666667 43 -2 41 -2 c 0
 35.6666666667 -2 31.5 -0.333333333333 28.5 3 c 128
 25.5 6.33333333333 24 10.5 24 15.5 c 128
 24 20.5 26 24.6666666667 30 28 c 0
 33.3333333333 30.6666666667 37 32 41 32 c 2
 71 35 l 2
 89 37 105.333333333 46.6666666667 120 64 c 2
 237 204 l 1
 87 384 l 2
 75.6666666667 397.333333333 63.6666666667 404.333333333 51 405 c 2
 34 406 l 2
 28.6666666667 406 24.5 407.5 21.5 410.5 c 128
 18.5 413.5 17 417.5 17 422.5 c 128
 17 427.5 18.6666666667 431.666666667 22 435 c 128
 25.3333333333 438.333333333 29.3333333333 440 34 440 c 0
 40 440 51.5 439.666666667 68.5 439 c 128
 85.5 438.333333333 105.5 438 128.5 438 c 128
 151.5 438 173.166666667 438.333333333 193.5 439 c 128
 213.833333333 439.666666667 226.666666667 440 232 440 c 0
 237.333333333 440 241.666666667 438.333333333 245 435 c 128
 248.333333333 431.666666667 250 427.5 250 422.5 c 128
 250 417.5 248.333333333 413.5 245 410.5 c 128
 241.666666667 407.5 237.333333333 406 232 406 c 2
 206 405 l 2
 199.333333333 405 195.666666667 401.333333333 195 394 c 0
 195.666666667 390 199.333333333 384 206 376 c 2
EndSplineSet
EndChar

StartChar: b
Encoding: 98 98 42
GlifName: b
Width: 440
VWidth: 0
Flags: W
HStem: -8 32<155.434 269.034> 424 32<158.91 268.192> 641 32<-47.9956 10.8318>
VStem: 16 80<74.2525 369.553 397 639.351> 336 96<112.744 330.614>
LayerCount: 2
Fore
SplineSet
336 224 m 4
 336 324 302 424 216 424 c 4
 149 424 96 367 96 293 c 6
 96 148 l 6
 96 75 147 24 216 24 c 260
 304 24 336 124 336 224 c 4
224 -8 m 260
 173 -8 124 12 76 52 c 5
 31 -2 l 6
 27 -7 16 -5 16 5 c 6
 16 609 l 6
 16 627 2 641 -16 641 c 6
 -32 641 l 6
 -42 641 -48 648 -48 657 c 28
 -48 666 -42 673 -32 673 c 4
 2 673 68 687 78 689 c 4
 88 691 96 681 96 671 c 6
 96 397 l 5
 132 436 161 456 224 456 c 4
 347 456 432 353 432 224 c 4
 432 83 350 -8 224 -8 c 260
EndSplineSet
EndChar

StartChar: q
Encoding: 113 113 43
GlifName: q
Width: 448
VWidth: 0
Flags: W
HStem: -220 32<275.005 310 441.651 507.995> -8 32<179.808 289.09> 424 32<178.966 292.566>
VStem: 16 96<117.386 335.256> 352 80<-182.138 51 78.4474 373.748>
LayerCount: 2
Fore
SplineSet
112 224 m 4
 112 124 146 24 232 24 c 4
 299 24 352 81 352 155 c 6
 352 300 l 6
 352 373 301 424 232 424 c 260
 144 424 112 324 112 224 c 4
224 456 m 4
 275 456 324 436 372 396 c 5
 417 450 l 6
 421 455 432 453 432 443 c 4
 432 262 432 -99 432 -99 c 6
 432 -159 434 -185 474 -187 c 6
 492 -188 l 6
 501 -188 508 -194 508 -204 c 4
 508 -214 501 -220 492 -220 c 4
 467 -220 432 -219 400 -219 c 6
 384 -219 l 6
 352 -219 316 -220 291 -220 c 4
 282 -220 275 -214 275 -204 c 4
 275 -194 282 -188 291 -188 c 6
 310 -187 l 6
 349 -185 352 -159 352 -99 c 6
 352 51 l 5
 316 12 287 -8 224 -8 c 4
 101 -8 16 95 16 224 c 4
 16 365 98 456 224 456 c 4
EndSplineSet
EndChar

StartChar: d
Encoding: 100 100 44
GlifName: d
Width: 512
VWidth: 0
Flags: HW
HStem: -8 32<178.966 292.945> 17 32<450.242 503.995> 424 32<179.808 289.09> 641 32<288.004 346.832>
VStem: 16 96<112.744 330.614> 352 80<74.3815 369.553 397 639.351>
LayerCount: 2
Fore
SplineSet
224 -8 m 0xbc
 98 -8 16 83 16 224 c 0
 16 353 101 456 224 456 c 0
 287 456 316 436 352 397 c 1
 352 609 l 2
 352 627 338 641 320 641 c 2
 304 641 l 2
 294 641 288 648 288 657 c 0
 288 666 294 673 304 673 c 0
 338 673 404 687 414 689 c 0
 424 691 432 681 432 671 c 0
 432 482 432 104 432 104 c 2
 432 72 458 52 488 49 c 0
 498 48 504 42 504 33 c 0
 504 24 497 18 488 17 c 0x7c
 462 13 419 4 394 -4 c 0
 386 -6 378 -11 370 -3 c 0
 363 4 359 28 357 40 c 1
 313 7 269 -8 224 -8 c 0xbc
112 224 m 0
 112 124 144 24 232 24 c 0xbc
 301 24 352 75 352 148 c 2
 352 293 l 2
 352 367 299 424 232 424 c 0
 146 424 112 324 112 224 c 0
EndSplineSet
EndChar

StartChar: p
Encoding: 112 112 45
GlifName: p
Width: 509
VWidth: 0
Flags: HW
HStem: -220 32<8.00511 43 174.651 240.995> -8 32<227.91 337.192> 399 32<13.0051 66.7578> 424 32<224.055 338.034>
VStem: 85 80<-182.138 51 78.4474 373.619> 405 96<117.386 335.256>
LayerCount: 2
Fore
SplineSet
405 224 m 4xdc
 405 324 373 424 285 424 c 4
 216 424 165 373 165 300 c 6
 165 155 l 6
 165 81 218 24 285 24 c 4
 371 24 405 124 405 224 c 4xdc
293 456 m 4
 419 456 501 365 501 224 c 4
 501 95 416 -8 293 -8 c 4
 230 -8 201 12 165 51 c 5
 165 1 165 -99 165 -99 c 6
 165 -159 167 -185 207 -187 c 6
 225 -188 l 6
 234 -188 241 -194 241 -204 c 4
 241 -214 234 -220 225 -220 c 4
 200 -220 165 -219 133 -219 c 6
 117 -219 l 6
 85 -219 49 -220 24 -220 c 4
 15 -220 8 -214 8 -204 c 4
 8 -194 15 -188 24 -188 c 6
 43 -187 l 6
 82 -185 85 -159 85 -99 c 6
 85 -99 85 196 85 344 c 4
 85 376 59 396 29 399 c 4
 19 400 13 406 13 415 c 4
 13 424 20 430 29 431 c 4xec
 55 435 98 444 123 452 c 4
 131 454 139 459 147 451 c 4
 154 444 158 420 160 408 c 5
 204 441 248 456 293 456 c 4
EndSplineSet
EndChar

StartChar: g
Encoding: 103 103 46
GlifName: g
Width: 548
VWidth: 0
Flags: HW
HStem: -276 34<170 345> -36 86<135 356> 114 34<186 283> 404 48<394 486> 421 34<186 285>
VStem: 34 66<-193 -90> 47 86<201 369> 70 50<31 106> 338 86<201 369> 415 67<-191 -86>
LayerCount: 2
Fore
SplineSet
47.291015625 744.201171875 m 5
 68.50390625 765.4140625 l 5
 82.646484375 751.272460938 l 5
 61.4326171875 730.059570312 l 5
 82.646484375 708.845703125 l 5
 68.50390625 694.704101562 l 5
 47.291015625 715.916992188 l 5
 26.0771484375 694.704101562 l 5
 11.935546875 708.845703125 l 5
 33.1484375 730.059570312 l 5
 11.935546875 751.272460938 l 5
 26.0771484375 765.4140625 l 5
 47.291015625 744.201171875 l 5
489 364 m 0
 475 364 463 371 453 385 c 0
 444.333333333 397.666666667 434.666666667 404 424 404 c 0
 411.333333333 404 399 399.333333333 387 390 c 1
 411.666666667 361.333333333 424 326.666666667 424 286 c 0
 424 235.333333333 405.833333333 194 369.5 162 c 128
 333.166666667 130 288.333333333 114 235 114 c 0
 177 114 143.333333333 110.833333333 134 104.5 c 128
 124.666666667 98.1666666667 120 90.6666666667 120 82 c 128
 120 73.3333333333 124.833333333 65.8333333333 134.5 59.5 c 128
 144.166666667 53.1666666667 177.666666667 50 235 50 c 2
 270 50 l 2
 336 50 387.833333333 36.6666666667 425.5 10 c 128
 463.166666667 -16.6666666667 482 -58.6666666667 482 -116 c 0
 482 -163.333333333 461.166666667 -201.833333333 419.5 -231.5 c 128
 377.833333333 -261.166666667 324 -276 258 -276 c 0
 184.666666667 -276 129 -263.333333333 91 -238 c 128
 53 -212.666666667 34 -179.666666667 34 -139 c 0
 34 -119 41.6666666667 -100.333333333 57 -83 c 0
 72.3333333333 -65 90.3333333333 -56 111 -56 c 0
 120.333333333 -56 127.666666667 -58 133 -62 c 128
 138.333333333 -66 141 -69.1666666667 141 -71.5 c 128
 141 -73.8333333333 140 -75.6666666667 138 -77 c 0
 112.666666667 -93.6666666667 100 -115 100 -141 c 256
 100 -169 115.166666667 -192.833333333 145.5 -212.5 c 128
 175.833333333 -232.166666667 213.333333333 -242 258 -242 c 256
 302 -242 339.166666667 -232.166666667 369.5 -212.5 c 128
 399.833333333 -192.833333333 415 -168.333333333 415 -139 c 128
 415 -109.666666667 399.833333333 -85.1666666667 369.5 -65.5 c 128
 339.166666667 -45.8333333333 302.666666667 -36 260 -36 c 2
 226 -36 l 2
 168 -36 127.5 -28.3333333333 104.5 -13 c 128
 81.5 2.33333333333 70 24 70 52 c 256
 70 76 77.6666666667 95.3333333333 93 110 c 128
 108.333333333 124.666666667 124 133.333333333 140 136 c 1
 125.333333333 142.666666667 112.333333333 151 101 161 c 0
 65 193.666666667 47 235.333333333 47 286 c 0
 47 336 65.1666666667 376.666666667 101.5 408 c 128
 137.833333333 439.333333333 182.333333333 455 235 455 c 0
 285.666666667 455 329.333333333 440 366 410 c 1
 377.333333333 419.333333333 390.666666667 427.666666667 406 435 c 0
 429.333333333 445.666666667 452 451 474 451 c 0
 489.333333333 451 502.666666667 447 514 439 c 128
 525.333333333 431 531 419.333333333 531 404 c 0
 531 391.333333333 527 381.5 519 374.5 c 128
 511 367.5 501 364 489 364 c 0
338 286 m 128
 338 326 327.5 358.5 306.5 383.5 c 128
 285.5 408.5 261.666666667 421 235 421 c 128
 208.333333333 421 184.5 408.5 163.5 383.5 c 128
 142.5 358.5 132 326 132 286 c 128
 132 246 142.5 213.166666667 163.5 187.5 c 128
 184.5 161.833333333 208.333333333 149 235 149 c 128
 261.666666667 149 285.5 161.833333333 306.5 187.5 c 128
 327.5 213.166666667 338 246 338 286 c 128
EndSplineSet
EndChar
